<svg width="202" height="80" viewBox="0 0 202 80" fill="none" xmlns="http://www.w3.org/2000/svg">
<path d="M34.0132 38.7578H36.3872V0L34.0132 2.37405V38.7578Z" fill="#CEB985"/>
<path d="M36.3814 38.8055L36.3814 36.3762L16.9473 36.3762L16.9473 38.8055L36.3814 38.8055Z" fill="#CEB985"/>
<path d="M0.0154724 36.3542L0.0154724 38.7834L36.3992 38.7834L36.3992 36.3542L0.0154724 36.3542Z" fill="#CEB985"/>
<path d="M0.0347064 38.781L2.46398 38.781L2.46398 19.3469L0.0347064 19.3469L0.0347064 38.781Z" fill="#CEB985"/>
<path d="M31.5689 7.2906L31.5689 4.86133L0.0436897 4.86133L0.0436897 7.2906L31.5689 7.2906Z" fill="#CEB985"/>
<path d="M0.0346758 24.2708L2.46395 24.2708L2.46395 4.83666L0.0346758 4.83666L0.0346758 24.2708Z" fill="#CEB985"/>
<path d="M29.1253 33.9587L31.5545 33.9587L31.5545 4.86282L29.1253 4.86282L29.1253 33.9587Z" fill="#CEB985"/>
<path d="M12.1252 4.80779L12.1252 7.23706L31.5593 7.23706L31.5593 4.80779L12.1252 4.80779Z" fill="#CEB985"/>
<path d="M4.86819 31.5012L4.86819 33.9304L31.5349 33.9304L31.5349 31.5012L4.86819 31.5012Z" fill="#CEB985"/>
<path d="M31.5839 14.5205H29.1547V33.9546H31.5839V14.5205Z" fill="#CEB985"/>
<path d="M7.29121 9.71704H4.86201V33.9544H7.29121V9.71704Z" fill="#CEB985"/>
<path d="M24.3074 33.9715L24.3074 31.5422L4.87333 31.5422L4.87333 33.9715L24.3074 33.9715Z" fill="#CEB985"/>
<path d="M26.6992 12.137L26.6992 9.70776L4.89107 9.70776L4.89107 12.137L26.6992 12.137Z" fill="#CEB985"/>
<path d="M4.86565 29.106L7.29486 29.106L7.29486 9.67186L4.86565 9.67186L4.86565 29.106Z" fill="#CEB985"/>
<path d="M24.2925 29.0718L26.7218 29.0718L26.7218 9.69289L24.2925 9.69289L24.2925 29.0718Z" fill="#CEB985"/>
<path d="M7.30232 9.71184L7.30232 12.1411L26.7364 12.1411L26.7364 9.71184L7.30232 9.71184Z" fill="#CEB985"/>
<path d="M9.73889 26.6516L9.73889 29.0808L26.6885 29.0808L26.6885 26.6516L9.73889 26.6516Z" fill="#CEB985"/>
<path d="M26.6701 9.66187H24.2408V29.096H26.6701V9.66187Z" fill="#CEB985"/>
<path d="M12.1498 14.5205H9.72052V29.0961H12.1498V14.5205Z" fill="#CEB985"/>
<path d="M26.7153 29.1074L26.7153 26.6782L9.76571 26.6782L9.76571 29.1074L26.7153 29.1074Z" fill="#CEB985"/>
<path d="M21.8591 16.9459L21.8591 14.5166L9.71284 14.5166L9.71284 16.9459L21.8591 16.9459Z" fill="#CEB985"/>
<path d="M9.72002 29.0742L12.1493 29.0742L12.1493 14.4986L9.72002 14.4986L9.72002 29.0742Z" fill="#CEB985"/>
<path d="M19.4214 24.2251L21.8507 24.2251L21.8507 14.508L19.4214 14.508L19.4214 24.2251Z" fill="#CEB985"/>
<path d="M9.7222 14.5055L9.7222 16.9348L21.8685 16.9348L21.8685 14.5055L9.7222 14.5055Z" fill="#CEB985"/>
<path d="M14.6012 21.8184L14.6012 24.2476L21.889 24.2476L21.889 21.8184L14.6012 21.8184Z" fill="#CEB985"/>
<path d="M17.0084 19.3789H14.5791V24.2374H17.0084V19.3789Z" fill="#CEB985"/>
<path d="M21.8668 14.5205H19.4375V24.2376H21.8668V14.5205Z" fill="#CEB985"/>
<path d="M41.2457 38.7578H38.8165V0L41.2457 2.37405V38.7578Z" fill="#CEB985"/>
<path d="M58.2126 38.7823V36.353L38.7785 36.353V38.7823H58.2126Z" fill="#CEB985"/>
<path d="M38.8156 36.3412V38.7705H75.1993V36.3412H38.8156Z" fill="#CEB985"/>
<path d="M75.2 19.3789H72.7708V38.813H75.2V19.3789Z" fill="#CEB985"/>
<path d="M75.2275 7.30305V4.87378L43.7024 4.87378V7.30305L75.2275 7.30305Z" fill="#CEB985"/>
<path d="M75.2 4.8584H72.7708V24.2925H75.2V4.8584Z" fill="#CEB985"/>
<path d="M46.1041 4.80347H43.6749V33.8994H46.1041V4.80347Z" fill="#CEB985"/>
<path d="M43.6399 4.79753V7.22681L63.074 7.22681V4.79753L43.6399 4.79753Z" fill="#CEB985"/>
<path d="M43.6689 31.4884V33.9177H70.3356V31.4884H43.6689Z" fill="#CEB985"/>
<path d="M43.6703 33.9333H46.0995V14.4993H43.6703V33.9333Z" fill="#CEB985"/>
<path d="M67.9033 33.9509H70.3326V9.71352H67.9033V33.9509Z" fill="#CEB985"/>
<path d="M70.3837 33.9959V31.5667L50.9496 31.5667V33.9959H70.3837Z" fill="#CEB985"/>
<path d="M70.357 12.1505V9.72119L48.5488 9.72119V12.1505L70.357 12.1505Z" fill="#CEB985"/>
<path d="M70.3968 9.71704H67.9675V29.1511H70.3968V9.71704Z" fill="#CEB985"/>
<path d="M50.9627 9.71704H48.5334V29.0959H50.9627V9.71704Z" fill="#CEB985"/>
<path d="M48.5081 9.67577V12.105L67.9422 12.105V9.67577L48.5081 9.67577Z" fill="#CEB985"/>
<path d="M48.5736 26.6733V29.1025H65.5232V26.6733H48.5736Z" fill="#CEB985"/>
<path d="M48.5671 29.127H50.9964V9.69285H48.5671V29.127Z" fill="#CEB985"/>
<path d="M63.0544 29.0908H65.4836V14.5152H63.0544V29.0908Z" fill="#CEB985"/>
<path d="M65.5193 29.1163V26.687L48.5697 26.687V29.1163L65.5193 29.1163Z" fill="#CEB985"/>
<path d="M65.5041 16.9725V14.5432L53.3578 14.5432V16.9725L65.5041 16.9725Z" fill="#CEB985"/>
<path d="M65.5383 14.5205H63.1091V29.0961H65.5383V14.5205Z" fill="#CEB985"/>
<path d="M55.8213 14.5203H53.392V24.2373H55.8213V14.5203Z" fill="#CEB985"/>
<path d="M53.3763 14.4882V16.9175H65.5226V14.4882H53.3763Z" fill="#CEB985"/>
<path d="M53.4067 21.811V24.2402H60.6945V21.811H53.4067Z" fill="#CEB985"/>
<path d="M58.1937 24.2156H60.6229V19.3571H58.1937V24.2156Z" fill="#CEB985"/>
<path d="M53.3585 24.251H55.7878V14.5339H53.3585V24.251Z" fill="#CEB985"/>
<path d="M34.0131 41.2422H36.3872V79.9999L34.0131 77.5707V41.2422Z" fill="#CEB985"/>
<path d="M17.0142 41.1828L17.0142 43.6121L36.4483 43.6121L36.4483 41.1828L17.0142 41.1828Z" fill="#CEB985"/>
<path d="M36.3876 43.6343L36.3876 41.2051L0.00387573 41.2051L0.00387573 43.6343L36.3876 43.6343Z" fill="#CEB985"/>
<path d="M0.0346529 60.6299L2.46393 60.6299L2.46393 41.1958L0.0346529 41.1958L0.0346529 60.6299Z" fill="#CEB985"/>
<path d="M-1.05495e-10 72.6979L0 75.1272L31.5252 75.1272L31.5252 72.6979L-1.05495e-10 72.6979Z" fill="#CEB985"/>
<path d="M0.0346453 75.1401L2.46392 75.1401L2.46392 55.706L0.0346453 55.706L0.0346453 75.1401Z" fill="#CEB985"/>
<path d="M29.1251 75.1689L31.5543 75.1689L31.5543 46.073L29.1251 46.073L29.1251 75.1689Z" fill="#CEB985"/>
<path d="M31.5476 75.1803L31.5476 72.751L12.1135 72.751L12.1135 75.1803L31.5476 75.1803Z" fill="#CEB985"/>
<path d="M31.5232 48.4873L31.5232 46.0581L4.85653 46.0581L4.85653 48.4873L31.5232 48.4873Z" fill="#CEB985"/>
<path d="M31.5838 46.0454H29.1546V65.4795H31.5838V46.0454Z" fill="#CEB985"/>
<path d="M7.29116 46.0454H4.86195V70.2828H7.29116V46.0454Z" fill="#CEB985"/>
<path d="M4.8849 46.0168L4.8849 48.446L24.319 48.446L24.319 46.0168L4.8849 46.0168Z" fill="#CEB985"/>
<path d="M4.84747 67.8515L4.84747 70.2808L26.6556 70.2808L26.6556 67.8515L4.84747 67.8515Z" fill="#CEB985"/>
<path d="M4.86564 70.3047L7.29485 70.3047L7.29485 50.8706L4.86564 50.8706L4.86564 70.3047Z" fill="#CEB985"/>
<path d="M24.2924 70.2837L26.7217 70.2837L26.7217 50.9048L24.2924 50.9048L24.2924 70.2837Z" fill="#CEB985"/>
<path d="M26.7248 70.2764L26.7248 67.8472L7.29066 67.8472L7.29066 70.2764L26.7248 70.2764Z" fill="#CEB985"/>
<path d="M26.6769 53.3369L26.6769 50.9077L9.72727 50.9077L9.72727 53.3369L26.6769 53.3369Z" fill="#CEB985"/>
<path d="M26.6701 50.9041H24.2408V70.3381H26.6701V50.9041Z" fill="#CEB985"/>
<path d="M12.1498 50.9041H9.72052V65.4796H12.1498V50.9041Z" fill="#CEB985"/>
<path d="M9.72215 50.8811L9.72215 53.3103L26.6718 53.3103L26.6718 50.8811L9.72215 50.8811Z" fill="#CEB985"/>
<path d="M9.72443 63.0424L9.72443 65.4717L21.8707 65.4717L21.8707 63.0424L9.72443 63.0424Z" fill="#CEB985"/>
<path d="M9.72001 65.478L12.1493 65.478L12.1493 50.9025L9.72001 50.9025L9.72001 65.478Z" fill="#CEB985"/>
<path d="M19.4214 65.4688L21.8507 65.4688L21.8507 55.7517L19.4214 55.7517L19.4214 65.4688Z" fill="#CEB985"/>
<path d="M21.8569 65.4827L21.8569 63.0535L9.71056 63.0535L9.71056 65.4827L21.8569 65.4827Z" fill="#CEB985"/>
<path d="M21.8222 58.1699L21.8222 55.7407L14.5344 55.7407L14.5344 58.1699L21.8222 58.1699Z" fill="#CEB985"/>
<path d="M17.0084 55.7625H14.5791V60.621H17.0084V55.7625Z" fill="#CEB985"/>
<path d="M21.8668 55.7625H19.4375V65.4795H21.8668V55.7625Z" fill="#CEB985"/>
<path d="M41.2457 41.2422H38.8165V79.9999L41.2457 77.5707V41.2422Z" fill="#CEB985"/>
<path d="M38.8455 41.206V43.6353H58.2795V41.206H38.8455Z" fill="#CEB985"/>
<path d="M75.1876 43.647V41.2178L38.8039 41.2178V43.647L75.1876 43.647Z" fill="#CEB985"/>
<path d="M75.2001 41.187H72.7709V60.6211H75.2001V41.187Z" fill="#CEB985"/>
<path d="M43.6589 72.685V75.1143H75.1841V72.685H43.6589Z" fill="#CEB985"/>
<path d="M75.2001 55.7073H72.7709V75.1414H75.2001V55.7073Z" fill="#CEB985"/>
<path d="M46.1041 46.0454H43.6749V75.1413H46.1041V46.0454Z" fill="#CEB985"/>
<path d="M63.0623 75.1907V72.7615H43.6282V75.1907H63.0623Z" fill="#CEB985"/>
<path d="M70.3238 48.4996V46.0703L43.6571 46.0703V48.4996L70.3238 48.4996Z" fill="#CEB985"/>
<path d="M43.6702 65.4773H46.0995V46.0432H43.6702V65.4773Z" fill="#CEB985"/>
<path d="M67.9034 70.2632H70.3326V46.0258H67.9034V70.2632Z" fill="#CEB985"/>
<path d="M50.9613 45.9921V48.4214H70.3954V45.9921H50.9613Z" fill="#CEB985"/>
<path d="M48.5052 67.8378V70.2671H70.3133V67.8378H48.5052Z" fill="#CEB985"/>
<path d="M70.3968 50.8489H67.9676V70.283H70.3968V50.8489Z" fill="#CEB985"/>
<path d="M50.9627 50.9041H48.5334V70.2829H50.9627V50.9041Z" fill="#CEB985"/>
<path d="M67.9306 70.3128V67.8835H48.4965V70.3128H67.9306Z" fill="#CEB985"/>
<path d="M65.5116 53.315V50.8857H48.562V53.315H65.5116Z" fill="#CEB985"/>
<path d="M48.5671 70.2837H50.9963V50.8496H48.5671V70.2837Z" fill="#CEB985"/>
<path d="M63.0543 65.4614H65.4835V50.8859H63.0543V65.4614Z" fill="#CEB985"/>
<path d="M48.526 50.872V53.3013H65.4756V50.872H48.526Z" fill="#CEB985"/>
<path d="M53.3695 63.016V65.4453H65.5158V63.016H53.3695Z" fill="#CEB985"/>
<path d="M65.5383 50.9041H63.109V65.4796H65.5383V50.9041Z" fill="#CEB985"/>
<path d="M55.8213 55.7627H53.392V65.4797H55.8213V55.7627Z" fill="#CEB985"/>
<path d="M65.511 65.5001V63.0708H53.3647V65.5001H65.511Z" fill="#CEB985"/>
<path d="M60.6277 58.1773V55.748H53.3399V58.1773H60.6277Z" fill="#CEB985"/>
<path d="M58.1937 60.6194H60.623V55.7609H58.1937V60.6194Z" fill="#CEB985"/>
<path d="M53.3586 65.4429H55.7879V55.7258H53.3586V65.4429Z" fill="#CEB985"/>
<path d="M86.1318 4.8584H82.4327V60.7866H86.1318V4.8584Z" fill="#16424F"/>
<path d="M175.573 4.8584H171.874V60.7866H175.573V4.8584Z" fill="#16424F"/>
<path d="M156.97 45.742V42.043L127.543 42.043V45.742L156.97 45.742Z" fill="#16424F"/>
<path d="M112.222 60.7284V57.0293L82.4078 57.0293V60.7284L112.222 60.7284Z" fill="#16424F"/>
<path d="M164.42 60.7314L143.937 9.49609L142.06 4.8584L140.183 9.49609L119.7 60.7314H123.399L142.06 14.1338L160.721 60.7314H164.42Z" fill="#16424F"/>
<path d="M186.781 34.6721H173.42V30.973H186.781C188.658 30.973 197.933 30.4209 197.933 19.7653C197.933 17.8881 197.381 8.55753 186.56 8.55753C179.051 8.55753 173.585 8.55753 173.585 8.55753V4.80322C173.585 4.80322 179.051 4.80322 186.56 4.80322C198.485 4.80322 201.632 14.189 201.632 19.7101C201.687 25.2863 198.54 34.6721 186.781 34.6721Z" fill="#16424F"/>
<path d="M180.487 34.6721H175.573L197.05 60.7315H201.798L180.487 34.6721Z" fill="#16424F"/>
<path d="M85.1932 67.9639C85.7453 67.9639 86.2422 68.0743 86.6287 68.2399C87.0704 68.4056 87.4017 68.6816 87.6777 69.0129C87.9538 69.3441 88.1746 69.6754 88.3402 70.1171C88.5058 70.5588 88.5611 71.0004 88.5611 71.4421C88.5611 71.8838 88.5058 72.3255 88.3402 72.7672C88.1746 73.2089 87.9538 73.5401 87.6777 73.8714C87.4017 74.2027 87.0152 74.4787 86.6287 74.6443C86.187 74.8652 85.6901 74.9204 85.1932 74.9204H82.6535V67.9639H85.1932ZM85.138 73.9266C85.5244 73.9266 85.8005 73.8714 86.0766 73.7058C86.3526 73.5953 86.5734 73.3745 86.7943 73.1537C87.0151 72.9328 87.1256 72.6568 87.236 72.3807C87.3464 72.1047 87.4017 71.7734 87.4017 71.4421C87.4017 71.1109 87.3464 70.7796 87.236 70.5036C87.1256 70.2275 86.9599 69.9515 86.7943 69.7306C86.5734 69.5098 86.3526 69.3441 86.0766 69.1785C85.8005 69.0681 85.4692 68.9576 85.138 68.9576H83.7577V73.8162H85.138V73.9266Z" fill="#16424F"/>
<path d="M98.9406 69.0129H95.8488V70.8348H98.775V71.8838H95.8488V73.9266H98.9959V74.9756H94.6894V67.9639H98.9406V69.0129Z" fill="#16424F"/>
<path d="M107.719 72.988L108.658 70.4483L109.651 67.9639H110.866V68.1295L107.94 75.0308H107.443L104.462 68.1295V67.9639H105.676L106.67 70.3931L107.719 72.988Z" fill="#16424F"/>
<path d="M120.97 69.0129H117.878V70.8348H120.804V71.8838H117.878V73.9266H121.025V74.9756H116.718V67.9639H120.97V69.0129Z" fill="#16424F"/>
<path d="M128.423 73.9266H131.404V74.9756H127.208V67.9639H128.368V73.9266H128.423Z" fill="#16424F"/>
<path d="M143.716 71.4974C143.716 72.0495 143.606 72.4912 143.44 72.9881C143.275 73.4298 142.999 73.8163 142.723 74.1475C142.391 74.4788 142.06 74.6996 141.618 74.8653C141.177 75.0309 140.68 75.1413 140.183 75.1413C139.686 75.1413 139.244 75.0861 138.803 74.9205C138.361 74.7548 137.974 74.534 137.698 74.2027C137.367 73.8715 137.146 73.5402 136.925 73.0433C136.76 72.6016 136.649 72.1047 136.649 71.4974C136.649 70.9453 136.76 70.3932 136.925 69.9515C137.091 69.5098 137.367 69.1234 137.698 68.7921C138.03 68.4608 138.416 68.24 138.858 68.0744C139.299 67.9087 139.741 67.8535 140.238 67.8535C140.735 67.8535 141.177 67.9087 141.618 68.0744C142.06 68.24 142.446 68.4608 142.723 68.7921C142.999 69.1234 143.33 69.4546 143.495 69.9515C143.661 70.3932 143.716 70.8901 143.716 71.4974ZM137.809 71.4974C137.809 71.8839 137.864 72.2704 137.974 72.6016C138.085 72.9329 138.251 73.1537 138.471 73.3746C138.692 73.5954 138.913 73.7611 139.244 73.8715C139.52 73.9819 139.852 74.0371 140.183 74.0371C140.514 74.0371 140.79 73.9819 141.121 73.8715C141.453 73.7611 141.674 73.5954 141.894 73.3746C142.115 73.1537 142.281 72.8777 142.391 72.6016C142.502 72.2704 142.557 71.9391 142.557 71.4974C142.557 71.1109 142.502 70.7245 142.391 70.4484C142.281 70.1172 142.115 69.8963 141.894 69.6755C141.674 69.4546 141.453 69.289 141.121 69.1786C140.845 69.0682 140.514 69.0129 140.183 69.0129C139.852 69.0129 139.52 69.0682 139.244 69.1786C138.968 69.289 138.692 69.4546 138.471 69.6755C138.251 69.8963 138.085 70.1724 137.974 70.4484C137.864 70.7245 137.809 71.0557 137.809 71.4974Z" fill="#16424F"/>
<path d="M149.845 74.9756V67.9639H152.771C153.157 67.9639 153.489 68.0191 153.82 68.1847C154.151 68.2951 154.372 68.516 154.593 68.7368C154.814 68.9577 154.979 69.2337 155.09 69.5098C155.2 69.7858 155.255 70.1171 155.255 70.4483C155.255 70.7796 155.2 71.1109 155.09 71.3869C154.979 71.663 154.814 71.939 154.593 72.1599C154.372 72.3807 154.096 72.5463 153.82 72.712C153.544 72.8224 153.157 72.9328 152.771 72.9328H151.059V75.0308H149.845V74.9756ZM152.716 71.8286C152.936 71.8286 153.102 71.7734 153.268 71.7182C153.433 71.663 153.599 71.5526 153.709 71.3869C153.82 71.2765 153.93 71.1109 153.985 70.9452C154.041 70.7796 154.096 70.5588 154.096 70.3931C154.096 70.1723 154.041 70.0067 153.985 69.841C153.93 69.6754 153.82 69.5098 153.709 69.3993C153.599 69.2889 153.433 69.1785 153.268 69.1233C153.102 69.0681 152.936 69.0129 152.716 69.0129H150.949V71.8838H152.716V71.8286Z" fill="#16424F"/>
<path d="M167.236 67.9639H167.678V74.9756H166.518V70.614L164.475 73.2089H164.31L162.267 70.614V74.9756H161.108V67.9639H161.549L164.42 71.6078L167.236 67.9639Z" fill="#16424F"/>
<path d="M178.444 69.0129H175.352V70.8348H178.278V71.8838H175.352V73.9266H178.499V74.9756H174.193V67.9639H178.444V69.0129Z" fill="#16424F"/>
<path d="M185.787 70.2275L185.842 72.4359V74.9756H184.682V67.9639H185.124L189.375 72.6568L189.32 70.5036V67.9639H190.48V74.9756H190.093L185.787 70.2275Z" fill="#16424F"/>
<path d="M196.277 69.0129V67.9639H201.467V69.0129H199.424V74.9756H198.264V69.0129H196.277Z" fill="#16424F"/>
</svg>
