<svg width="420" height="72" viewBox="0 0 420 72" fill="none" xmlns="http://www.w3.org/2000/svg">
<path d="M37.0715 71.8965L39.7305 71.8965L39.7305 34.6983L37.0715 34.6983L37.0715 71.8965Z" fill="#EEF2F1"/>
<path d="M39.7187 71.9975L39.7188 69.5049L18.5488 69.5049L18.5488 71.9975L39.7187 71.9975Z" fill="#EEF2F1"/>
<path d="M0.100586 69.4653L0.100586 71.958L39.7815 71.958L39.7815 69.4653L0.100586 69.4653Z" fill="#EEF2F1"/>
<path d="M0.066582 71.9038L2.72559 71.9038L2.72559 52.0584L0.066582 52.0584L0.066582 71.9038Z" fill="#EEF2F1"/>
<path d="M34.4053 39.7514L34.4053 37.2588L0.0424004 37.2588L0.0424004 39.7514L34.4053 39.7514Z" fill="#EEF2F1"/>
<path d="M0.0656054 57.105L2.72461 57.105L2.72461 37.2596L0.0656054 37.2596L0.0656054 57.105Z" fill="#EEF2F1"/>
<path d="M31.7334 66.9468L34.3926 66.9468L34.3926 37.2266L31.7334 37.2266L31.7334 66.9468Z" fill="#EEF2F1"/>
<path d="M13.2891 37.2203L13.2891 39.7129L34.459 39.7129L34.459 37.2203L13.2891 37.2203Z" fill="#EEF2F1"/>
<path d="M5.38672 64.5068L5.38672 66.9995L34.4315 66.9995L34.4315 64.5068L5.38672 64.5068Z" fill="#EEF2F1"/>
<path d="M34.4147 47.168H31.7557V67.0133H34.4147V47.168Z" fill="#EEF2F1"/>
<path d="M8.02814 42.2783H5.36914V67.0132H8.02814V42.2783Z" fill="#EEF2F1"/>
<path d="M26.4795 67.0048L26.4795 64.5122L5.30952 64.5122L5.30952 67.0048L26.4795 67.0048Z" fill="#EEF2F1"/>
<path d="M29.1545 44.7031L29.1545 42.2104L5.3255 42.2104L5.3255 44.7031L29.1545 44.7031Z" fill="#EEF2F1"/>
<path d="M5.30682 62.0234L7.96582 62.0234L7.96582 42.178L5.30682 42.178L5.30682 62.0234Z" fill="#EEF2F1"/>
<path d="M26.4914 61.9883L29.1504 61.9883L29.1504 42.2387L26.4914 42.2387L26.4914 61.9883Z" fill="#EEF2F1"/>
<path d="M7.99805 42.2515L7.99805 44.7441L29.168 44.7441L29.168 42.2515L7.99805 42.2515Z" fill="#EEF2F1"/>
<path d="M10.6357 59.5527L10.6357 62.0454L29.1467 62.0454L29.1467 59.5527L10.6357 59.5527Z" fill="#EEF2F1"/>
<path d="M29.0984 42.1826H26.4394V62.028H29.0984V42.1826Z" fill="#EEF2F1"/>
<path d="M13.3493 47.168H10.6902V62.0281H13.3493V47.168Z" fill="#EEF2F1"/>
<path d="M29.1221 62.0518L29.1221 59.5591L10.6111 59.5591L10.6111 62.0518L29.1221 62.0518Z" fill="#EEF2F1"/>
<path d="M23.8752 49.6162L23.8752 47.1235L10.6823 47.1235L10.6823 49.6162L23.8752 49.6162Z" fill="#EEF2F1"/>
<path d="M10.5744 62.0088L13.2334 62.0088L13.2334 47.1487L10.5744 47.1487L10.5744 62.0088Z" fill="#EEF2F1"/>
<path d="M21.2043 57.0547L23.8633 57.0547L23.8633 47.1799L21.2043 47.1799L21.2043 57.0547Z" fill="#EEF2F1"/>
<path d="M10.6318 47.1548L10.6318 49.6475L23.8247 49.6475L23.8247 47.1548L10.6318 47.1548Z" fill="#EEF2F1"/>
<path d="M15.9346 54.6147L15.9346 57.1074L23.8094 57.1074L23.8094 54.6147L15.9346 54.6147Z" fill="#EEF2F1"/>
<path d="M18.5633 52.0571H15.9043V57.0425H18.5633V52.0571Z" fill="#EEF2F1"/>
<path d="M23.8807 47.168H21.2217V57.1386H23.8807V47.168Z" fill="#EEF2F1"/>
<path d="M45.0526 34.8003H42.3936V71.9984H45.0526V34.8003Z" fill="#EEF2F1"/>
<path d="M63.5107 71.936V69.4434H42.3408V71.936H63.5107Z" fill="#EEF2F1"/>
<path d="M42.3857 69.4146V71.9072H82.0667V69.4146H42.3857Z" fill="#EEF2F1"/>
<path d="M82.0743 52.1533H79.4152V71.9987H82.0743V52.1533Z" fill="#EEF2F1"/>
<path d="M81.9873 39.7285V37.2358L47.6244 37.2358V39.7285L81.9873 39.7285Z" fill="#EEF2F1"/>
<path d="M82.075 37.2935H79.4158V57.1389H82.075V37.2935Z" fill="#EEF2F1"/>
<path d="M50.2684 37.293H47.6094V67.0131H50.2684V37.293Z" fill="#EEF2F1"/>
<path d="M47.6357 37.2035V39.6963H68.8057V37.2035H47.6357Z" fill="#EEF2F1"/>
<path d="M47.6748 64.4556V66.9482H76.7196V64.4556H47.6748Z" fill="#EEF2F1"/>
<path d="M47.6603 66.9731H50.3193V47.1278H47.6603V66.9731Z" fill="#EEF2F1"/>
<path d="M74.0568 66.9731H76.7158V42.2383H74.0568V66.9731Z" fill="#EEF2F1"/>
<path d="M76.6963 67.0044V64.5117H55.5263V67.0044H76.6963Z" fill="#EEF2F1"/>
<path d="M76.7334 44.6811V42.1885L52.9044 42.1885V44.6811L76.7334 44.6811Z" fill="#EEF2F1"/>
<path d="M76.7559 42.2788H74.0969V62.1242H76.7559V42.2788Z" fill="#EEF2F1"/>
<path d="M55.5847 42.2783H52.9257V62.0279H55.5847V42.2783Z" fill="#EEF2F1"/>
<path d="M52.9033 42.2618V44.7544H74.0733V42.2618H52.9033Z" fill="#EEF2F1"/>
<path d="M52.959 59.5362V62.0288H71.47V59.5362H52.959Z" fill="#EEF2F1"/>
<path d="M52.9738 62.084H55.6328V42.2386H52.9738V62.084Z" fill="#EEF2F1"/>
<path d="M68.7941 62.0254H71.4531V47.1653H68.7941V62.0254Z" fill="#EEF2F1"/>
<path d="M71.4111 62.0991V59.6064H52.9002V62.0991H71.4111Z" fill="#EEF2F1"/>
<path d="M71.4424 49.6064V47.1138H58.2495V49.6064H71.4424Z" fill="#EEF2F1"/>
<path d="M71.4393 47.1675H68.7803V62.0276H71.4393V47.1675Z" fill="#EEF2F1"/>
<path d="M60.9041 47.1675H58.2451V57.0422H60.9041V47.1675Z" fill="#EEF2F1"/>
<path d="M58.208 47.1729V49.6655H71.4008V47.1729H58.208Z" fill="#EEF2F1"/>
<path d="M58.2256 54.5694V57.062H66.1004V54.5694H58.2256Z" fill="#EEF2F1"/>
<path d="M63.5197 57.1191H66.1787V52.1338H63.5197V57.1191Z" fill="#EEF2F1"/>
<path d="M58.1721 57.0811H60.8311V47.1104H58.1721V57.0811Z" fill="#EEF2F1"/>
<path d="M37.0695 37.209L39.7285 37.209L39.7285 0.0108337L37.0695 0.0108337L37.0695 37.209Z" fill="#EEF2F1"/>
<path d="M18.5439 0.00296879L18.5439 2.49561L39.7139 2.49561L39.7139 0.00296879L18.5439 0.00296879Z" fill="#EEF2F1"/>
<path d="M39.6809 2.53572L39.6809 0.0429688L2.67029e-05 0.0429688L2.6703e-05 2.53572L39.6809 2.53572Z" fill="#EEF2F1"/>
<path d="M0.066582 19.8491L2.72559 19.8491L2.72559 0.00370026L0.066582 0.00370026L0.066582 19.8491Z" fill="#EEF2F1"/>
<path d="M0.0400391 32.2486L0.0400391 34.7412L34.4029 34.7412L34.4029 32.2486L0.0400391 32.2486Z" fill="#EEF2F1"/>
<path d="M0.066582 34.7432L2.72559 34.7432L2.72559 14.8977L0.066582 14.8977L0.066582 34.7432Z" fill="#EEF2F1"/>
<path d="M31.7334 34.7769L34.3926 34.7769L34.3926 5.05668L31.7334 5.05668L31.7334 34.7769Z" fill="#EEF2F1"/>
<path d="M34.4629 34.7807L34.4629 32.2881L13.2929 32.2881L13.2929 34.7807L34.4629 34.7807Z" fill="#EEF2F1"/>
<path d="M34.4364 7.49373L34.4364 5.00098L5.3916 5.00098L5.3916 7.49373L34.4364 7.49373Z" fill="#EEF2F1"/>
<path d="M34.4159 4.98438H31.7569V24.8297H34.4159V4.98438Z" fill="#EEF2F1"/>
<path d="M8.03016 4.98438H5.37115V29.7192H8.03016V4.98438Z" fill="#EEF2F1"/>
<path d="M5.30762 4.99564L5.30762 7.48828L26.4776 7.48828L26.4776 4.99564L5.30762 4.99564Z" fill="#EEF2F1"/>
<path d="M5.32324 27.2974L5.32324 29.79L29.1522 29.79L29.1522 27.2974L5.32324 27.2974Z" fill="#EEF2F1"/>
<path d="M5.30779 29.7295L7.9668 29.7295L7.9668 9.88407L5.30779 9.88407L5.30779 29.7295Z" fill="#EEF2F1"/>
<path d="M26.4894 29.7642L29.1484 29.7642L29.1484 10.0146L26.4894 10.0146L26.4894 29.7642Z" fill="#EEF2F1"/>
<path d="M29.1699 29.7485L29.1699 27.2559L7.99995 27.2559L7.99995 29.7485L29.1699 29.7485Z" fill="#EEF2F1"/>
<path d="M29.1497 12.4478L29.1497 9.95508L10.6387 9.95508L10.6387 12.4478L29.1497 12.4478Z" fill="#EEF2F1"/>
<path d="M29.0975 9.96973H26.4385V29.8151H29.0975V9.96973Z" fill="#EEF2F1"/>
<path d="M13.3486 9.96973H10.6896V24.8298H13.3486V9.96973Z" fill="#EEF2F1"/>
<path d="M10.6084 9.94865L10.6084 12.4414L29.1194 12.4414L29.1194 9.94865L10.6084 9.94865Z" fill="#EEF2F1"/>
<path d="M10.6797 22.3848L10.6797 24.8774L23.8725 24.8774L23.8725 22.3848L10.6797 22.3848Z" fill="#EEF2F1"/>
<path d="M10.5744 24.8545L13.2334 24.8545L13.2334 9.9944L10.5744 9.9944L10.5744 24.8545Z" fill="#EEF2F1"/>
<path d="M21.2043 24.8237L23.8633 24.8237L23.8633 14.949L21.2043 14.949L21.2043 24.8237Z" fill="#EEF2F1"/>
<path d="M23.8271 24.8457L23.8271 22.353L10.6343 22.353L10.6343 24.8457L23.8271 24.8457Z" fill="#EEF2F1"/>
<path d="M23.8116 17.3863L23.8116 14.8936L15.9368 14.8936L15.9368 17.3863L23.8116 17.3863Z" fill="#EEF2F1"/>
<path d="M18.5633 14.9551H15.9043V19.9404H18.5633V14.9551Z" fill="#EEF2F1"/>
<path d="M23.8807 14.8594H21.2217V24.83H23.8807V14.8594Z" fill="#EEF2F1"/>
<path d="M45.0516 0.0947266H42.3926V37.2929H45.0516V0.0947266Z" fill="#EEF2F1"/>
<path d="M42.3369 0.0644922V2.55713L63.5069 2.55713V0.0644922L42.3369 0.0644922Z" fill="#EEF2F1"/>
<path d="M81.9661 2.58639V0.09375L42.2852 0.09375V2.58639L81.9661 2.58639Z" fill="#EEF2F1"/>
<path d="M82.0732 0.0947266H79.4141V19.9401H82.0732V0.0947266Z" fill="#EEF2F1"/>
<path d="M47.6191 32.272V34.7646H81.982V32.272H47.6191Z" fill="#EEF2F1"/>
<path d="M82.0732 14.8594H79.4141V34.7048H82.0732V14.8594Z" fill="#EEF2F1"/>
<path d="M50.2684 4.98438H47.6094V34.7046H50.2684V4.98438Z" fill="#EEF2F1"/>
<path d="M68.8086 34.7965V32.3037L47.6386 32.3037V34.7965H68.8086Z" fill="#EEF2F1"/>
<path d="M76.7227 7.54439V5.05176L47.6779 5.05176V7.54439L76.7227 7.54439Z" fill="#EEF2F1"/>
<path d="M47.6603 24.876H50.3193V5.03061H47.6603V24.876Z" fill="#EEF2F1"/>
<path d="M74.0549 29.7651H76.7139V5.03029H74.0549V29.7651Z" fill="#EEF2F1"/>
<path d="M55.5215 4.99613V7.48877L76.6915 7.48877V4.99613L55.5215 4.99613Z" fill="#EEF2F1"/>
<path d="M52.9023 27.3194V29.812H76.7313V27.3194H52.9023Z" fill="#EEF2F1"/>
<path d="M76.7568 9.96973H74.0978V29.8151H76.7568V9.96973Z" fill="#EEF2F1"/>
<path d="M55.5848 9.96973H52.9258V29.7193H55.5848V9.96973Z" fill="#EEF2F1"/>
<path d="M74.0762 29.7387V27.2461L52.9062 27.2461V29.7387L74.0762 29.7387Z" fill="#EEF2F1"/>
<path d="M71.4717 12.4638V9.97119L52.9607 9.97119V12.4638L71.4717 12.4638Z" fill="#EEF2F1"/>
<path d="M52.9738 29.7646H55.6328V9.91923H52.9738V29.7646Z" fill="#EEF2F1"/>
<path d="M68.7941 24.8379H71.4531V9.9778H68.7941V24.8379Z" fill="#EEF2F1"/>
<path d="M52.8975 9.90238V12.395L71.4084 12.395V9.90238H52.8975Z" fill="#EEF2F1"/>
<path d="M58.2461 22.3936V24.8862H71.4389V22.3936H58.2461Z" fill="#EEF2F1"/>
<path d="M71.4394 9.96973H68.7804V24.8298H71.4394V9.96973Z" fill="#EEF2F1"/>
<path d="M60.9031 14.9551H58.2441V24.8298H60.9031V14.9551Z" fill="#EEF2F1"/>
<path d="M71.4033 24.8271V22.3345L58.2105 22.3345V24.8271L71.4033 24.8271Z" fill="#EEF2F1"/>
<path d="M66.1045 17.4311V14.9385L58.2297 14.9385V17.4311H66.1045Z" fill="#EEF2F1"/>
<path d="M63.5207 19.8691H66.1797V14.8838H63.5207V19.8691Z" fill="#EEF2F1"/>
<path d="M58.173 24.8926H60.832V14.922H58.173V24.8926Z" fill="#EEF2F1"/>
<path d="M121.539 71.8965L124.198 71.8965L124.198 34.6983L121.539 34.6983L121.539 71.8965Z" fill="#EEF2F1"/>
<path d="M124.241 71.9526L124.241 69.46L103.071 69.46L103.071 71.9526L124.241 71.9526Z" fill="#EEF2F1"/>
<path d="M84.6221 69.4141L84.6221 71.9067L124.303 71.9067L124.303 69.4141L84.6221 69.4141Z" fill="#EEF2F1"/>
<path d="M84.5334 71.9038L87.1924 71.9038L87.1924 52.0584L84.5334 52.0584L84.5334 71.9038Z" fill="#EEF2F1"/>
<path d="M118.928 39.8022L118.928 37.3096L84.5649 37.3096L84.5649 39.8022L118.928 39.8022Z" fill="#EEF2F1"/>
<path d="M84.5334 57.1045L87.1924 57.1045L87.1924 37.2591L84.5334 37.2591L84.5334 57.1045Z" fill="#EEF2F1"/>
<path d="M116.305 66.9463L118.964 66.9463L118.964 37.2261L116.305 37.2261L116.305 66.9463Z" fill="#EEF2F1"/>
<path d="M97.8125 37.2646L97.8125 39.7573L118.982 39.7573L118.982 37.2646L97.8125 37.2646Z" fill="#EEF2F1"/>
<path d="M89.9102 64.4556L89.9102 66.9482L118.955 66.9482L118.955 64.4556L89.9102 64.4556Z" fill="#EEF2F1"/>
<path d="M118.993 47.1675H116.334V67.0128H118.993V47.1675Z" fill="#EEF2F1"/>
<path d="M92.5036 42.2783H89.8446V67.0132H92.5036V42.2783Z" fill="#EEF2F1"/>
<path d="M111.003 67.0556L111.003 64.563L89.833 64.563L89.833 67.0556L111.003 67.0556Z" fill="#EEF2F1"/>
<path d="M113.676 44.7539L113.676 42.2612L89.8469 42.2612L89.8469 44.7539L113.676 44.7539Z" fill="#EEF2F1"/>
<path d="M89.8781 62.0234L92.5371 62.0234L92.5371 42.178L89.8781 42.178L89.8781 62.0234Z" fill="#EEF2F1"/>
<path d="M111.06 61.9888L113.719 61.9888L113.719 42.2392L111.06 42.2392L111.06 61.9888Z" fill="#EEF2F1"/>
<path d="M92.5176 42.2012L92.5176 44.6938L113.688 44.6938L113.688 42.2012L92.5176 42.2012Z" fill="#EEF2F1"/>
<path d="M95.1582 59.5977L95.1582 62.0903L113.669 62.0903L113.669 59.5977L95.1582 59.5977Z" fill="#EEF2F1"/>
<path d="M113.675 42.1826H111.016V62.028H113.675V42.1826Z" fill="#EEF2F1"/>
<path d="M97.8221 47.1675H95.1631V62.0276H97.8221V47.1675Z" fill="#EEF2F1"/>
<path d="M113.644 62.102L113.644 59.6094L95.1326 59.6094L95.1326 62.102L113.644 62.102Z" fill="#EEF2F1"/>
<path d="M108.399 49.667L108.399 47.1743L95.2066 47.1743L95.2066 49.667L108.399 49.667Z" fill="#EEF2F1"/>
<path d="M95.1467 62.0083L97.8057 62.0083L97.8057 47.1482L95.1467 47.1482L95.1467 62.0083Z" fill="#EEF2F1"/>
<path d="M105.672 57.0542L108.331 57.0542L108.331 47.1794L105.672 47.1794L105.672 57.0542Z" fill="#EEF2F1"/>
<path d="M95.1543 47.1036L95.1543 49.5962L108.347 49.5962L108.347 47.1036L95.1543 47.1036Z" fill="#EEF2F1"/>
<path d="M100.459 54.563L100.459 57.0557L108.334 57.0557L108.334 54.563L100.459 54.563Z" fill="#EEF2F1"/>
<path d="M103.142 52.0566H100.483V57.042H103.142V52.0566Z" fill="#EEF2F1"/>
<path d="M108.357 47.1675H105.698V57.1381H108.357V47.1675Z" fill="#EEF2F1"/>
<path d="M129.528 34.8003H126.869V71.9984H129.528V34.8003Z" fill="#EEF2F1"/>
<path d="M148.034 71.9874V69.4946H126.864V71.9874H148.034Z" fill="#EEF2F1"/>
<path d="M126.908 69.4589V71.9517H166.589V69.4589H126.908Z" fill="#EEF2F1"/>
<path d="M166.549 52.1533H163.89V71.9987H166.549V52.1533Z" fill="#EEF2F1"/>
<path d="M166.51 39.7797V37.2871L132.147 37.2871V39.7797L166.51 39.7797Z" fill="#EEF2F1"/>
<path d="M166.549 37.2935H163.89V57.1389H166.549V37.2935Z" fill="#EEF2F1"/>
<path d="M134.846 37.293H132.187V67.0131H134.846V37.293Z" fill="#EEF2F1"/>
<path d="M132.158 37.2486V39.7412H153.328V37.2486H132.158Z" fill="#EEF2F1"/>
<path d="M132.197 64.5009V66.9937H161.242V64.5009H132.197Z" fill="#EEF2F1"/>
<path d="M132.128 66.9731H134.787V47.1278H132.128V66.9731Z" fill="#EEF2F1"/>
<path d="M158.628 66.9736H161.287V42.2388H158.628V66.9736Z" fill="#EEF2F1"/>
<path d="M161.22 67.0561V64.5635H140.05V67.0561H161.22Z" fill="#EEF2F1"/>
<path d="M161.257 44.7319V42.2393L137.428 42.2393V44.7319L161.257 44.7319Z" fill="#EEF2F1"/>
<path d="M161.231 42.2788H158.572V62.1242H161.231V42.2788Z" fill="#EEF2F1"/>
<path d="M140.062 42.2783H137.403V62.0279H140.062V42.2783Z" fill="#EEF2F1"/>
<path d="M137.428 42.211V44.7036H158.598V42.211H137.428Z" fill="#EEF2F1"/>
<path d="M137.483 59.582V62.0747H155.994V59.582H137.483Z" fill="#EEF2F1"/>
<path d="M137.443 62.0845H140.102V42.2391H137.443V62.0845Z" fill="#EEF2F1"/>
<path d="M153.265 62.0254H155.924V47.1653H153.265V62.0254Z" fill="#EEF2F1"/>
<path d="M155.935 62.0538V59.561H137.424V62.0538H155.935Z" fill="#EEF2F1"/>
<path d="M155.965 49.6582V47.1655H142.772V49.6582H155.965Z" fill="#EEF2F1"/>
<path d="M156.014 47.1685H153.355V62.0285H156.014V47.1685Z" fill="#EEF2F1"/>
<path d="M145.379 47.1675H142.72V57.0422H145.379V47.1675Z" fill="#EEF2F1"/>
<path d="M142.731 47.1221V49.6147H155.924V47.1221H142.731Z" fill="#EEF2F1"/>
<path d="M142.749 54.6137V57.1064H150.624V54.6137H142.749Z" fill="#EEF2F1"/>
<path d="M147.989 57.1191H150.648V52.1338H147.989V57.1191Z" fill="#EEF2F1"/>
<path d="M142.742 57.0811H145.401V47.1104H142.742V57.0811Z" fill="#EEF2F1"/>
<path d="M121.541 37.209L124.2 37.209L124.2 0.0108337L121.541 0.0108337L121.541 37.209Z" fill="#EEF2F1"/>
<path d="M103.068 0.0474024L103.068 2.54004L124.238 2.54004L124.238 0.0474024L103.068 0.0474024Z" fill="#EEF2F1"/>
<path d="M124.204 2.58639L124.204 0.09375L84.5233 0.09375L84.5233 2.58639L124.204 2.58639Z" fill="#EEF2F1"/>
<path d="M84.5352 19.8491L87.1942 19.8491L87.1942 0.00370026L84.5352 0.00370026L84.5352 19.8491Z" fill="#EEF2F1"/>
<path d="M84.5624 32.1973L84.5624 34.6899L118.925 34.6899L118.925 32.1973L84.5624 32.1973Z" fill="#EEF2F1"/>
<path d="M84.5342 34.7432L87.1932 34.7432L87.1932 14.8977L84.5342 14.8977L84.5342 34.7432Z" fill="#EEF2F1"/>
<path d="M116.306 34.7764L118.965 34.7764L118.965 5.05619L116.306 5.05619L116.306 34.7764Z" fill="#EEF2F1"/>
<path d="M118.987 34.7354L118.987 32.2427L97.8172 32.2427L97.8172 34.7354L118.987 34.7354Z" fill="#EEF2F1"/>
<path d="M118.959 7.54439L118.959 5.05176L89.9139 5.05176L89.9139 7.54439L118.959 7.54439Z" fill="#EEF2F1"/>
<path d="M118.994 4.98438H116.335V24.8297H118.994V4.98438Z" fill="#EEF2F1"/>
<path d="M92.5065 4.98438H89.8475V29.7192H92.5065V4.98438Z" fill="#EEF2F1"/>
<path d="M89.8319 4.94438L89.8319 7.43701L111.002 7.43701L111.002 4.94438L89.8319 4.94438Z" fill="#EEF2F1"/>
<path d="M89.8446 27.2466L89.8446 29.7393L113.674 29.7393L113.674 27.2466L89.8446 27.2466Z" fill="#EEF2F1"/>
<path d="M89.879 29.7295L92.538 29.7295L92.538 9.88407L89.879 9.88407L89.879 29.7295Z" fill="#EEF2F1"/>
<path d="M111.061 29.7642L113.72 29.7642L113.72 10.0146L111.061 10.0146L111.061 29.7642Z" fill="#EEF2F1"/>
<path d="M113.691 29.7993L113.691 27.3066L92.5213 27.3066L92.5213 29.7993L113.691 29.7993Z" fill="#EEF2F1"/>
<path d="M113.673 12.4033L113.673 9.91064L95.162 9.91064L95.162 12.4033L113.673 12.4033Z" fill="#EEF2F1"/>
<path d="M113.675 9.96973H111.016V29.8151H113.675V9.96973Z" fill="#EEF2F1"/>
<path d="M97.8239 9.97021H95.1649V24.8303H97.8239V9.97021Z" fill="#EEF2F1"/>
<path d="M95.1317 9.89799L95.1317 12.3906L113.643 12.3906L113.643 9.89799L95.1317 9.89799Z" fill="#EEF2F1"/>
<path d="M95.204 22.333L95.204 24.8257L108.397 24.8257L108.397 22.333L95.204 22.333Z" fill="#EEF2F1"/>
<path d="M95.1475 24.854L97.8065 24.854L97.8065 9.99391L95.1475 9.99391L95.1475 24.854Z" fill="#EEF2F1"/>
<path d="M105.673 24.8237L108.332 24.8237L108.332 14.949L105.673 14.949L105.673 24.8237Z" fill="#EEF2F1"/>
<path d="M108.35 24.8969L108.35 22.4043L95.1576 22.4043L95.1576 24.8969L108.35 24.8969Z" fill="#EEF2F1"/>
<path d="M108.336 17.437L108.336 14.9443L100.461 14.9443L100.461 17.437L108.336 17.437Z" fill="#EEF2F1"/>
<path d="M103.142 14.9551H100.483V19.9404H103.142V14.9551Z" fill="#EEF2F1"/>
<path d="M108.357 14.8594H105.698V24.83H108.357V14.8594Z" fill="#EEF2F1"/>
<path d="M129.528 0.0947266H126.869V37.2929H129.528V0.0947266Z" fill="#EEF2F1"/>
<path d="M126.861 0.0131059V2.50586L148.031 2.50586V0.0131059L126.861 0.0131059Z" fill="#EEF2F1"/>
<path d="M166.49 2.54158V0.0488281L126.809 0.0488281V2.54158L166.49 2.54158Z" fill="#EEF2F1"/>
<path d="M166.55 0.0947266H163.891V19.9401H166.55V0.0947266Z" fill="#EEF2F1"/>
<path d="M132.142 32.2212V34.7139H166.505V32.2212H132.142Z" fill="#EEF2F1"/>
<path d="M166.549 14.8594H163.89V34.7048H166.549V14.8594Z" fill="#EEF2F1"/>
<path d="M134.845 4.98438H132.186V34.7046H134.845V4.98438Z" fill="#EEF2F1"/>
<path d="M153.332 34.7519V32.2593L132.162 32.2593V34.7519H153.332Z" fill="#EEF2F1"/>
<path d="M161.245 7.4991V5.00635L132.2 5.00635V7.4991L161.245 7.4991Z" fill="#EEF2F1"/>
<path d="M132.128 24.8755H134.787V5.03012H132.128V24.8755Z" fill="#EEF2F1"/>
<path d="M158.626 29.7646H161.285V5.0298H158.626V29.7646Z" fill="#EEF2F1"/>
<path d="M140.045 4.94486V7.4375L161.215 7.4375V4.94486L140.045 4.94486Z" fill="#EEF2F1"/>
<path d="M137.427 27.2681V29.7607H161.256V27.2681H137.427Z" fill="#EEF2F1"/>
<path d="M161.231 9.96924H158.572V29.8147H161.231V9.96924Z" fill="#EEF2F1"/>
<path d="M140.062 9.96924H137.403V29.7188H140.062V9.96924Z" fill="#EEF2F1"/>
<path d="M158.6 29.789V27.2964L137.43 27.2964V29.789L158.6 29.789Z" fill="#EEF2F1"/>
<path d="M155.997 12.419V9.92627L137.486 9.92627V12.419L155.997 12.419Z" fill="#EEF2F1"/>
<path d="M137.442 29.7642H140.101V9.91874H137.442V29.7642Z" fill="#EEF2F1"/>
<path d="M153.265 24.8369H155.924V9.97682H153.265V24.8369Z" fill="#EEF2F1"/>
<path d="M137.421 9.94621V12.439L155.932 12.439V9.94621L137.421 9.94621Z" fill="#EEF2F1"/>
<path d="M142.768 22.3418V24.8345H155.961V22.3418H142.768Z" fill="#EEF2F1"/>
<path d="M156.014 9.96924H153.355V24.8293H156.014V9.96924Z" fill="#EEF2F1"/>
<path d="M145.379 14.9551H142.72V24.8298H145.379V14.9551Z" fill="#EEF2F1"/>
<path d="M155.926 24.8784V22.3857L142.733 22.3857V24.8784L155.926 24.8784Z" fill="#EEF2F1"/>
<path d="M150.627 17.3863V14.8936L142.752 14.8936V17.3863H150.627Z" fill="#EEF2F1"/>
<path d="M147.99 19.8691H150.649V14.8838H147.99V19.8691Z" fill="#EEF2F1"/>
<path d="M142.743 24.8926H145.402V14.922H142.743V24.8926Z" fill="#EEF2F1"/>
<path d="M206.153 71.8965L208.812 71.8965L208.812 34.6983L206.153 34.6983L206.153 71.8965Z" fill="#EEF2F1"/>
<path d="M208.786 71.9838L208.786 69.4912L187.616 69.4912L187.616 71.9838L208.786 71.9838Z" fill="#EEF2F1"/>
<path d="M169.166 69.4786L169.166 71.9712L208.847 71.9712L208.847 69.4786L169.166 69.4786Z" fill="#EEF2F1"/>
<path d="M169.147 71.9038L171.806 71.9038L171.806 52.0584L169.147 52.0584L169.147 71.9038Z" fill="#EEF2F1"/>
<path d="M203.472 39.7382L203.472 37.2456L169.109 37.2456L169.109 39.7382L203.472 39.7382Z" fill="#EEF2F1"/>
<path d="M169.147 57.105L171.806 57.105L171.806 37.2596L169.147 37.2596L169.147 57.105Z" fill="#EEF2F1"/>
<path d="M200.814 66.9468L203.473 66.9468L203.473 37.2266L200.814 37.2266L200.814 66.9468Z" fill="#EEF2F1"/>
<path d="M182.355 37.2334L182.355 39.7261L203.525 39.7261L203.525 37.2334L182.355 37.2334Z" fill="#EEF2F1"/>
<path d="M174.455 64.5201L174.455 67.0127L203.5 67.0127L203.5 64.5201L174.455 64.5201Z" fill="#EEF2F1"/>
<path d="M203.57 47.168H200.911V67.0133H203.57V47.168Z" fill="#EEF2F1"/>
<path d="M177.084 42.2783H174.425V67.0132H177.084V42.2783Z" fill="#EEF2F1"/>
<path d="M195.548 67.088L195.548 64.5952L174.378 64.5952L174.378 67.088L195.548 67.088Z" fill="#EEF2F1"/>
<path d="M198.22 44.6894L198.22 42.1968L174.391 42.1968L174.391 44.6894L198.22 44.6894Z" fill="#EEF2F1"/>
<path d="M174.389 62.0229L177.048 62.0229L177.048 42.1775L174.389 42.1775L174.389 62.0229Z" fill="#EEF2F1"/>
<path d="M195.571 61.9883L198.23 61.9883L198.23 42.2387L195.571 42.2387L195.571 61.9883Z" fill="#EEF2F1"/>
<path d="M177.063 42.2646L177.063 44.7573L198.233 44.7573L198.233 42.2646L177.063 42.2646Z" fill="#EEF2F1"/>
<path d="M179.704 59.5655L179.704 62.0581L198.215 62.0581L198.215 59.5655L179.704 59.5655Z" fill="#EEF2F1"/>
<path d="M198.254 42.1826H195.595V62.028H198.254V42.1826Z" fill="#EEF2F1"/>
<path d="M182.4 47.1675H179.741V62.0276H182.4V47.1675Z" fill="#EEF2F1"/>
<path d="M198.187 62.038L198.188 59.5454L179.677 59.5454L179.677 62.038L198.187 62.038Z" fill="#EEF2F1"/>
<path d="M192.942 49.6025L192.942 47.1099L179.75 47.1099L179.75 49.6025L192.942 49.6025Z" fill="#EEF2F1"/>
<path d="M179.655 62.0083L182.314 62.0083L182.314 47.1482L179.655 47.1482L179.655 62.0083Z" fill="#EEF2F1"/>
<path d="M190.285 57.0547L192.944 57.0547L192.944 47.1799L190.285 47.1799L190.285 57.0547Z" fill="#EEF2F1"/>
<path d="M179.699 47.168L179.699 49.6606L192.892 49.6606L192.892 47.168L179.699 47.168Z" fill="#EEF2F1"/>
<path d="M185.002 54.6275L185.002 57.1201L192.877 57.1201L192.877 54.6275L185.002 54.6275Z" fill="#EEF2F1"/>
<path d="M187.617 52.0566H184.958V57.042H187.617V52.0566Z" fill="#EEF2F1"/>
<path d="M192.935 47.1675H190.276V57.1381H192.935V47.1675Z" fill="#EEF2F1"/>
<path d="M214.106 34.8003H211.447V71.9984H214.106V34.8003Z" fill="#EEF2F1"/>
<path d="M232.579 71.9228V69.4302H211.409V71.9228H232.579Z" fill="#EEF2F1"/>
<path d="M211.454 69.4283V71.9209H251.135V69.4283H211.454Z" fill="#EEF2F1"/>
<path d="M251.13 52.1538H248.471V71.9992H251.13V52.1538Z" fill="#EEF2F1"/>
<path d="M251.055 39.8115V37.3188L216.692 37.3188V39.8115L251.055 39.8115Z" fill="#EEF2F1"/>
<path d="M251.13 37.2935H248.471V57.1389H251.13V37.2935Z" fill="#EEF2F1"/>
<path d="M219.321 37.293H216.662V67.0131H219.321V37.293Z" fill="#EEF2F1"/>
<path d="M216.702 37.2173V39.71H237.872V37.2173H216.702Z" fill="#EEF2F1"/>
<path d="M216.742 64.4698V66.9624H245.787V64.4698H216.742Z" fill="#EEF2F1"/>
<path d="M216.64 66.9731H219.299V47.1278H216.64V66.9731Z" fill="#EEF2F1"/>
<path d="M243.139 66.9731H245.798V42.2383H243.139V66.9731Z" fill="#EEF2F1"/>
<path d="M245.765 67.0874V64.5947H224.595V67.0874H245.765Z" fill="#EEF2F1"/>
<path d="M245.801 44.7636V42.271L221.972 42.271V44.7636L245.801 44.7636Z" fill="#EEF2F1"/>
<path d="M245.809 42.2788H243.15V62.1242H245.809V42.2788Z" fill="#EEF2F1"/>
<path d="M224.64 42.2783H221.981V62.0279H224.64V42.2783Z" fill="#EEF2F1"/>
<path d="M221.972 42.1791V44.6719H243.142V42.1791H221.972Z" fill="#EEF2F1"/>
<path d="M222.028 59.5498V62.0425H240.539V59.5498H222.028Z" fill="#EEF2F1"/>
<path d="M222.057 62.0845H224.716V42.2391H222.057V62.0845Z" fill="#EEF2F1"/>
<path d="M237.875 62.0254H240.534V47.1653H237.875V62.0254Z" fill="#EEF2F1"/>
<path d="M240.478 62.0854V59.5928H221.967V62.0854H240.478Z" fill="#EEF2F1"/>
<path d="M240.508 49.6889V47.1963H227.315V49.6889H240.508Z" fill="#EEF2F1"/>
<path d="M240.491 47.1675H237.832V62.0276H240.491V47.1675Z" fill="#EEF2F1"/>
<path d="M229.959 47.168H227.3V57.0427H229.959V47.168Z" fill="#EEF2F1"/>
<path d="M227.275 47.0909V49.5835H240.468V47.0909H227.275Z" fill="#EEF2F1"/>
<path d="M227.294 54.5821V57.0747H235.169V54.5821H227.294Z" fill="#EEF2F1"/>
<path d="M232.5 57.1187H235.159V52.1333H232.5V57.1187Z" fill="#EEF2F1"/>
<path d="M227.253 57.0806H229.912V47.11H227.253V57.0806Z" fill="#EEF2F1"/>
<path d="M206.154 37.209L208.813 37.209L208.813 0.0108337L206.154 0.0108337L206.154 37.209Z" fill="#EEF2F1"/>
<path d="M187.613 0.0161524L187.613 2.50879L208.783 2.50879L208.783 0.0161524L187.613 0.0161524Z" fill="#EEF2F1"/>
<path d="M208.748 2.52242L208.748 0.0297852L169.067 0.0297852L169.067 2.52242L208.748 2.52242Z" fill="#EEF2F1"/>
<path d="M169.149 19.8491L171.808 19.8491L171.808 0.00370026L169.149 0.00370026L169.149 19.8491Z" fill="#EEF2F1"/>
<path d="M169.106 32.2618L169.106 34.7544L203.469 34.7544L203.469 32.2618L169.106 32.2618Z" fill="#EEF2F1"/>
<path d="M169.147 34.7432L171.806 34.7432L171.806 14.8977L169.147 14.8977L169.147 34.7432Z" fill="#EEF2F1"/>
<path d="M200.815 34.7769L203.474 34.7769L203.474 5.05668L200.815 5.05668L200.815 34.7769Z" fill="#EEF2F1"/>
<path d="M203.53 34.7675L203.53 32.2749L182.36 32.2749L182.36 34.7675L203.53 34.7675Z" fill="#EEF2F1"/>
<path d="M203.504 7.47994L203.504 4.9873L174.459 4.9873L174.459 7.47994L203.504 7.47994Z" fill="#EEF2F1"/>
<path d="M203.571 4.98438H200.912V24.8297H203.571V4.98438Z" fill="#EEF2F1"/>
<path d="M177.083 4.98438H174.424V29.7192H177.083V4.98438Z" fill="#EEF2F1"/>
<path d="M174.374 4.91252L174.374 7.40527L195.544 7.40527L195.544 4.91252L174.374 4.91252Z" fill="#EEF2F1"/>
<path d="M174.39 27.3106L174.39 29.8032L198.219 29.8032L198.219 27.3106L174.39 27.3106Z" fill="#EEF2F1"/>
<path d="M174.391 29.7295L177.05 29.7295L177.05 9.88407L174.391 9.88407L174.391 29.7295Z" fill="#EEF2F1"/>
<path d="M195.57 29.7642L198.229 29.7642L198.229 10.0146L195.57 10.0146L195.57 29.7642Z" fill="#EEF2F1"/>
<path d="M198.237 29.7354L198.237 27.2427L177.067 27.2427L177.067 29.7354L198.237 29.7354Z" fill="#EEF2F1"/>
<path d="M198.217 12.4345L198.217 9.94189L179.706 9.94189L179.706 12.4345L198.217 12.4345Z" fill="#EEF2F1"/>
<path d="M198.254 9.96924H195.595V29.8147H198.254V9.96924Z" fill="#EEF2F1"/>
<path d="M182.4 9.96973H179.741V24.8298H182.4V9.96973Z" fill="#EEF2F1"/>
<path d="M179.675 9.96195L179.675 12.4546L198.186 12.4546L198.186 9.96195L179.675 9.96195Z" fill="#EEF2F1"/>
<path d="M179.747 22.3975L179.747 24.8901L192.94 24.8901L192.94 22.3975L179.747 22.3975Z" fill="#EEF2F1"/>
<path d="M179.656 24.854L182.315 24.854L182.315 9.99391L179.656 9.99391L179.656 24.854Z" fill="#EEF2F1"/>
<path d="M190.284 24.8232L192.943 24.8232L192.943 14.9485L190.284 14.9485L190.284 24.8232Z" fill="#EEF2F1"/>
<path d="M192.895 24.832L192.895 22.3394L179.702 22.3394L179.702 24.832L192.895 24.832Z" fill="#EEF2F1"/>
<path d="M192.881 17.3725L192.881 14.8799L185.006 14.8799L185.006 17.3725L192.881 17.3725Z" fill="#EEF2F1"/>
<path d="M187.618 14.9556H184.959V19.9409H187.618V14.9556Z" fill="#EEF2F1"/>
<path d="M192.936 14.8594H190.277V24.83H192.936V14.8594Z" fill="#EEF2F1"/>
<path d="M214.107 0.0947266H211.448V37.2929H214.107V0.0947266Z" fill="#EEF2F1"/>
<path d="M211.406 0.0776758V2.57031L232.576 2.57031V0.0776758L211.406 0.0776758Z" fill="#EEF2F1"/>
<path d="M251.032 2.57271V0.0800781L211.351 0.0800781V2.57271L251.032 2.57271Z" fill="#EEF2F1"/>
<path d="M251.126 0.0942383H248.467V19.9397H251.126V0.0942383Z" fill="#EEF2F1"/>
<path d="M216.688 32.189V34.6816H251.051V32.189H216.688Z" fill="#EEF2F1"/>
<path d="M251.127 14.8589H248.468V34.7043H251.127V14.8589Z" fill="#EEF2F1"/>
<path d="M219.321 4.98438H216.662V34.7046H219.321V4.98438Z" fill="#EEF2F1"/>
<path d="M237.875 34.7832V32.2905L216.705 32.2905V34.7832H237.875Z" fill="#EEF2F1"/>
<path d="M245.789 7.53072V5.03809L216.744 5.03809V7.53072L245.789 7.53072Z" fill="#EEF2F1"/>
<path d="M216.639 24.875H219.298V5.02964H216.639V24.875Z" fill="#EEF2F1"/>
<path d="M243.138 29.7646H245.797V5.0298H243.138V29.7646Z" fill="#EEF2F1"/>
<path d="M224.59 4.91313V7.40576L245.76 7.40576V4.91313L224.59 4.91313Z" fill="#EEF2F1"/>
<path d="M221.97 27.2364V29.729H245.799V27.2364H221.97Z" fill="#EEF2F1"/>
<path d="M245.809 9.96924H243.15V29.8147H245.809V9.96924Z" fill="#EEF2F1"/>
<path d="M224.638 9.96924H221.979V29.7188H224.638V9.96924Z" fill="#EEF2F1"/>
<path d="M243.144 29.8204V27.3276L221.974 27.3276V29.8204L243.144 29.8204Z" fill="#EEF2F1"/>
<path d="M240.54 12.4506V9.95801L222.029 9.95801V12.4506L240.54 12.4506Z" fill="#EEF2F1"/>
<path d="M222.056 29.7642H224.715V9.91874H222.056V29.7642Z" fill="#EEF2F1"/>
<path d="M237.877 24.8374H240.536V9.97731H237.877V24.8374Z" fill="#EEF2F1"/>
<path d="M221.966 9.91557V12.4082L240.477 12.4082V9.91557H221.966Z" fill="#EEF2F1"/>
<path d="M227.312 22.3101V24.8027H240.505V22.3101H227.312Z" fill="#EEF2F1"/>
<path d="M240.491 9.96924H237.832V24.8293H240.491V9.96924Z" fill="#EEF2F1"/>
<path d="M229.958 14.9546H227.299V24.8293H229.958V14.9546Z" fill="#EEF2F1"/>
<path d="M240.471 24.9091V22.4165L227.278 22.4165V24.9091L240.471 24.9091Z" fill="#EEF2F1"/>
<path d="M235.169 17.4179V14.9253L227.294 14.9253V17.4179H235.169Z" fill="#EEF2F1"/>
<path d="M232.499 19.8691H235.158V14.8838H232.499V19.8691Z" fill="#EEF2F1"/>
<path d="M227.252 24.8931H229.911V14.9225H227.252V24.8931Z" fill="#EEF2F1"/>
<path d="M290.62 71.8965L293.279 71.8965L293.279 34.6983L290.62 34.6983L290.62 71.8965Z" fill="#EEF2F1"/>
<path d="M293.308 71.939L293.308 69.4463L272.138 69.4463L272.138 71.939L293.308 71.939Z" fill="#EEF2F1"/>
<path d="M253.688 69.4277L253.688 71.9204L293.368 71.9204L293.368 69.4277L253.688 69.4277Z" fill="#EEF2F1"/>
<path d="M253.614 71.9038L256.273 71.9038L256.273 52.0584L253.614 52.0584L253.614 71.9038Z" fill="#EEF2F1"/>
<path d="M287.994 39.7895L287.994 37.2969L253.631 37.2969L253.631 39.7895L287.994 39.7895Z" fill="#EEF2F1"/>
<path d="M253.614 57.1045L256.273 57.1045L256.273 37.2591L253.614 37.2591L253.614 57.1045Z" fill="#EEF2F1"/>
<path d="M285.385 66.9468L288.044 66.9468L288.044 37.2266L285.385 37.2266L285.385 66.9468Z" fill="#EEF2F1"/>
<path d="M266.879 37.1822L266.879 39.6748L288.049 39.6748L288.049 37.1822L266.879 37.1822Z" fill="#EEF2F1"/>
<path d="M258.977 64.4692L258.977 66.9619L288.021 66.9619L288.021 64.4692L258.977 64.4692Z" fill="#EEF2F1"/>
<path d="M288.044 47.168H285.385V67.0133H288.044V47.168Z" fill="#EEF2F1"/>
<path d="M261.558 42.2783H258.898V67.0132H261.558V42.2783Z" fill="#EEF2F1"/>
<path d="M280.069 67.0424L280.069 64.5498L258.899 64.5498L258.899 67.0424L280.069 67.0424Z" fill="#EEF2F1"/>
<path d="M282.743 44.7407L282.743 42.248L258.914 42.248L258.914 44.7407L282.743 44.7407Z" fill="#EEF2F1"/>
<path d="M258.959 62.0234L261.618 62.0234L261.618 42.178L258.959 42.178L258.959 62.0234Z" fill="#EEF2F1"/>
<path d="M280.142 61.9883L282.801 61.9883L282.801 42.2387L280.142 42.2387L280.142 61.9883Z" fill="#EEF2F1"/>
<path d="M261.586 42.2139L261.586 44.7065L282.756 44.7065L282.756 42.2139L261.586 42.2139Z" fill="#EEF2F1"/>
<path d="M264.226 59.5151L264.226 62.0078L282.737 62.0078L282.737 59.5151L264.226 59.5151Z" fill="#EEF2F1"/>
<path d="M282.727 42.1826H280.068V62.028H282.727V42.1826Z" fill="#EEF2F1"/>
<path d="M266.875 47.1675H264.216V62.0276H266.875V47.1675Z" fill="#EEF2F1"/>
<path d="M282.71 62.0889L282.71 59.5962L264.199 59.5962L264.199 62.0889L282.71 62.0889Z" fill="#EEF2F1"/>
<path d="M277.466 49.6533L277.466 47.1606L264.273 47.1606L264.273 49.6533L277.466 49.6533Z" fill="#EEF2F1"/>
<path d="M264.227 62.0083L266.886 62.0083L266.886 47.1482L264.227 47.1482L264.227 62.0083Z" fill="#EEF2F1"/>
<path d="M274.753 57.0547L277.412 57.0547L277.412 47.1799L274.753 47.1799L274.753 57.0547Z" fill="#EEF2F1"/>
<path d="M264.221 47.1172L264.221 49.6099L277.414 49.6099L277.414 47.1172L264.221 47.1172Z" fill="#EEF2F1"/>
<path d="M269.523 54.5771L269.523 57.0698L277.398 57.0698L277.398 54.5771L269.523 54.5771Z" fill="#EEF2F1"/>
<path d="M272.193 52.0571H269.534V57.0425H272.193V52.0571Z" fill="#EEF2F1"/>
<path d="M277.512 47.168H274.853V57.1386H277.512V47.168Z" fill="#EEF2F1"/>
<path d="M298.579 34.8008H295.92V71.9989H298.579V34.8008Z" fill="#EEF2F1"/>
<path d="M317.099 71.9741V69.4814H295.929V71.9741H317.099Z" fill="#EEF2F1"/>
<path d="M295.974 69.4732V71.9658H335.655V69.4732H295.974Z" fill="#EEF2F1"/>
<path d="M335.6 52.1538H332.941V71.9992H335.6V52.1538Z" fill="#EEF2F1"/>
<path d="M335.575 39.7666V37.2739L301.212 37.2739V39.7666L335.575 39.7666Z" fill="#EEF2F1"/>
<path d="M335.602 37.2935H332.943V57.1389H335.602V37.2935Z" fill="#EEF2F1"/>
<path d="M303.896 37.2935H301.237V67.0136H303.896V37.2935Z" fill="#EEF2F1"/>
<path d="M301.224 37.2627V39.7554H322.394V37.2627H301.224Z" fill="#EEF2F1"/>
<path d="M301.264 64.5147V67.0073H330.308V64.5147H301.264Z" fill="#EEF2F1"/>
<path d="M301.209 66.9736H303.868V47.1283H301.209V66.9736Z" fill="#EEF2F1"/>
<path d="M327.608 66.9736H330.267V42.2388H327.608V66.9736Z" fill="#EEF2F1"/>
<path d="M330.286 67.0429V64.5503H309.116V67.0429H330.286Z" fill="#EEF2F1"/>
<path d="M330.323 44.7192V42.2266L306.494 42.2266V44.7192L330.323 44.7192Z" fill="#EEF2F1"/>
<path d="M330.386 42.2793H327.727V62.1247H330.386V42.2793Z" fill="#EEF2F1"/>
<path d="M309.114 42.2783H306.455V62.0279H309.114V42.2783Z" fill="#EEF2F1"/>
<path d="M306.493 42.2242V44.7168H327.663V42.2242H306.493Z" fill="#EEF2F1"/>
<path d="M306.548 59.5953V62.0879H325.059V59.5953H306.548Z" fill="#EEF2F1"/>
<path d="M306.522 62.085H309.181V42.2395H306.522V62.085Z" fill="#EEF2F1"/>
<path d="M322.345 62.0259H325.004V47.1658H322.345V62.0259Z" fill="#EEF2F1"/>
<path d="M325.001 62.041V59.5483H306.49V62.041H325.001Z" fill="#EEF2F1"/>
<path d="M325.031 49.645V47.1523H311.838V49.645H325.031Z" fill="#EEF2F1"/>
<path d="M325.068 47.168H322.409V62.0281H325.068V47.168Z" fill="#EEF2F1"/>
<path d="M314.431 47.168H311.772V57.0427H314.431V47.168Z" fill="#EEF2F1"/>
<path d="M311.798 47.1358V49.6284H324.991V47.1358H311.798Z" fill="#EEF2F1"/>
<path d="M311.817 54.6275V57.1201H319.692V54.6275H311.817Z" fill="#EEF2F1"/>
<path d="M317.071 57.1191H319.73V52.1338H317.071V57.1191Z" fill="#EEF2F1"/>
<path d="M311.825 57.0811H314.484V47.1104H311.825V57.0811Z" fill="#EEF2F1"/>
<path d="M290.621 37.209L293.28 37.209L293.28 0.0108337L290.621 0.0108337L290.621 37.209Z" fill="#EEF2F1"/>
<path d="M272.136 0.0609574L272.136 2.55371L293.306 2.55371L293.306 0.0609574L272.136 0.0609574Z" fill="#EEF2F1"/>
<path d="M293.272 2.57332L293.272 0.0805664L253.591 0.0805664L253.591 2.57332L293.272 2.57332Z" fill="#EEF2F1"/>
<path d="M253.615 19.8491L256.274 19.8491L256.274 0.00370026L253.615 0.00370026L253.615 19.8491Z" fill="#EEF2F1"/>
<path d="M253.63 32.211L253.63 34.7036L287.993 34.7036L287.993 32.211L253.63 32.211Z" fill="#EEF2F1"/>
<path d="M253.615 34.7432L256.274 34.7432L256.274 14.8977L253.615 14.8977L253.615 34.7432Z" fill="#EEF2F1"/>
<path d="M285.385 34.7769L288.044 34.7769L288.044 5.05668L285.385 5.05668L285.385 34.7769Z" fill="#EEF2F1"/>
<path d="M288.053 34.8183L288.053 32.3257L266.883 32.3257L266.883 34.8183L288.053 34.8183Z" fill="#EEF2F1"/>
<path d="M288.026 7.53133L288.026 5.03857L258.981 5.03857L258.981 7.53133L288.026 7.53133Z" fill="#EEF2F1"/>
<path d="M288.047 4.98438H285.388V24.8297H288.047V4.98438Z" fill="#EEF2F1"/>
<path d="M261.559 4.98438H258.899V29.7192H261.559V4.98438Z" fill="#EEF2F1"/>
<path d="M258.897 4.95756L258.897 7.4502L280.067 7.4502L280.067 4.95756L258.897 4.95756Z" fill="#EEF2F1"/>
<path d="M258.912 27.2598L258.912 29.7524L282.741 29.7524L282.741 27.2598L258.912 27.2598Z" fill="#EEF2F1"/>
<path d="M258.96 29.7295L261.619 29.7295L261.619 9.88407L258.96 9.88407L258.96 29.7295Z" fill="#EEF2F1"/>
<path d="M280.143 29.7642L282.802 29.7642L282.802 10.0146L280.143 10.0146L280.143 29.7642Z" fill="#EEF2F1"/>
<path d="M282.761 29.7861L282.761 27.2935L261.591 27.2935L261.591 29.7861L282.761 29.7861Z" fill="#EEF2F1"/>
<path d="M282.74 12.4859L282.74 9.99316L264.229 9.99316L264.229 12.4859L282.74 12.4859Z" fill="#EEF2F1"/>
<path d="M282.727 9.96973H280.068V29.8151H282.727V9.96973Z" fill="#EEF2F1"/>
<path d="M266.876 9.96973H264.217V24.8298H266.876V9.96973Z" fill="#EEF2F1"/>
<path d="M264.198 9.91106L264.198 12.4038L282.709 12.4038L282.709 9.91106L264.198 9.91106Z" fill="#EEF2F1"/>
<path d="M264.271 22.3467L264.271 24.8394L277.463 24.8394L277.463 22.3467L264.271 22.3467Z" fill="#EEF2F1"/>
<path d="M264.228 24.854L266.887 24.854L266.887 9.99391L264.228 9.99391L264.228 24.854Z" fill="#EEF2F1"/>
<path d="M274.753 24.8232L277.412 24.8232L277.412 14.9485L274.753 14.9485L274.753 24.8232Z" fill="#EEF2F1"/>
<path d="M277.418 24.8828L277.418 22.3901L264.225 22.3901L264.225 24.8828L277.418 24.8828Z" fill="#EEF2F1"/>
<path d="M277.402 17.4239L277.402 14.9312L269.527 14.9312L269.527 17.4239L277.402 17.4239Z" fill="#EEF2F1"/>
<path d="M272.195 14.9551H269.536V19.9404H272.195V14.9551Z" fill="#EEF2F1"/>
<path d="M277.513 14.8594H274.854V24.83H277.513V14.8594Z" fill="#EEF2F1"/>
<path d="M298.58 0.0952148H295.921V37.2934H298.58V0.0952148Z" fill="#EEF2F1"/>
<path d="M295.928 0.0273829V2.52002L317.098 2.52002V0.0273829L295.928 0.0273829Z" fill="#EEF2F1"/>
<path d="M335.555 2.52828V0.0356445L295.874 0.0356445V2.52828L335.555 2.52828Z" fill="#EEF2F1"/>
<path d="M335.6 0.0952148H332.941V19.9406H335.6V0.0952148Z" fill="#EEF2F1"/>
<path d="M301.211 32.2344V34.7271H335.574V32.2344H301.211Z" fill="#EEF2F1"/>
<path d="M335.602 14.8594H332.943V34.7048H335.602V14.8594Z" fill="#EEF2F1"/>
<path d="M303.897 4.98438H301.238V34.7046H303.897V4.98438Z" fill="#EEF2F1"/>
<path d="M322.398 34.7382V32.2456L301.228 32.2456V34.7382H322.398Z" fill="#EEF2F1"/>
<path d="M330.311 7.48629V4.99365L301.267 4.99365V7.48629L330.311 7.48629Z" fill="#EEF2F1"/>
<path d="M301.209 24.876H303.868V5.03061H301.209V24.876Z" fill="#EEF2F1"/>
<path d="M327.607 29.7651H330.266V5.03029H327.607V29.7651Z" fill="#EEF2F1"/>
<path d="M309.112 4.95854V7.45117L330.282 7.45117V4.95854L309.112 4.95854Z" fill="#EEF2F1"/>
<path d="M306.492 27.2818V29.7744H330.321V27.2818H306.492Z" fill="#EEF2F1"/>
<path d="M330.386 9.96973H327.727V29.8151H330.386V9.96973Z" fill="#EEF2F1"/>
<path d="M309.113 9.96973H306.454V29.7193H309.113V9.96973Z" fill="#EEF2F1"/>
<path d="M327.666 29.7763V27.2837L306.496 27.2837V29.7763L327.666 29.7763Z" fill="#EEF2F1"/>
<path d="M325.062 12.4057V9.91309L306.552 9.91309V12.4057L325.062 12.4057Z" fill="#EEF2F1"/>
<path d="M306.522 29.7646H309.181V9.91923H306.522V29.7646Z" fill="#EEF2F1"/>
<path d="M322.346 24.8379H325.005V9.9778H322.346V24.8379Z" fill="#EEF2F1"/>
<path d="M306.487 9.96049V12.4531L324.998 12.4531V9.96049H306.487Z" fill="#EEF2F1"/>
<path d="M311.836 22.3555V24.8481H325.029V22.3555H311.836Z" fill="#EEF2F1"/>
<path d="M325.068 9.96973H322.409V24.8298H325.068V9.96973Z" fill="#EEF2F1"/>
<path d="M314.431 14.9551H311.772V24.8298H314.431V14.9551Z" fill="#EEF2F1"/>
<path d="M324.993 24.8652V22.3726L311.8 22.3726V24.8652L324.993 24.8652Z" fill="#EEF2F1"/>
<path d="M319.694 17.373V14.8804L311.82 14.8804V17.373H319.694Z" fill="#EEF2F1"/>
<path d="M317.072 19.8696H319.731V14.8843H317.072V19.8696Z" fill="#EEF2F1"/>
<path d="M311.825 24.8931H314.484V14.9225H311.825V24.8931Z" fill="#EEF2F1"/>
<path d="M375.039 71.8965L377.698 71.8965L377.698 34.6983L375.039 34.6983L375.039 71.8965Z" fill="#EEF2F1"/>
<path d="M377.653 71.9654L377.653 69.4727L356.483 69.4727L356.483 71.9654L377.653 71.9654Z" fill="#EEF2F1"/>
<path d="M338.034 69.4971L338.034 71.9897L377.715 71.9897L377.715 69.4971L338.034 69.4971Z" fill="#EEF2F1"/>
<path d="M337.933 71.9038L340.592 71.9038L340.592 52.0584L337.933 52.0584L337.933 71.9038Z" fill="#EEF2F1"/>
<path d="M372.341 39.8154L372.341 37.3228L337.978 37.3228L337.978 39.8154L372.341 39.8154Z" fill="#EEF2F1"/>
<path d="M337.933 57.1045L340.592 57.1045L340.592 37.2591L337.933 37.2591L337.933 57.1045Z" fill="#EEF2F1"/>
<path d="M369.703 66.9463L372.362 66.9463L372.362 37.2261L369.703 37.2261L369.703 66.9463Z" fill="#EEF2F1"/>
<path d="M351.226 37.2515L351.226 39.7441L372.396 39.7441L372.396 37.2515L351.226 37.2515Z" fill="#EEF2F1"/>
<path d="M343.324 64.5381L343.324 67.0308L372.369 67.0308L372.369 64.5381L343.324 64.5381Z" fill="#EEF2F1"/>
<path d="M372.42 47.1675H369.761V67.0128H372.42V47.1675Z" fill="#EEF2F1"/>
<path d="M345.932 42.2783H343.272V67.0132H345.932V42.2783Z" fill="#EEF2F1"/>
<path d="M364.416 67.0688L364.416 64.5762L343.246 64.5762L343.246 67.0688L364.416 67.0688Z" fill="#EEF2F1"/>
<path d="M367.09 44.7671L367.09 42.2744L343.261 42.2744L343.261 44.7671L367.09 44.7671Z" fill="#EEF2F1"/>
<path d="M343.276 62.0229L345.936 62.0229L345.936 42.1775L343.276 42.1775L343.276 62.0229Z" fill="#EEF2F1"/>
<path d="M364.457 61.9888L367.116 61.9888L367.116 42.2392L364.457 42.2392L364.457 61.9888Z" fill="#EEF2F1"/>
<path d="M345.931 42.188L345.931 44.6807L367.101 44.6807L367.101 42.188L345.931 42.188Z" fill="#EEF2F1"/>
<path d="M348.57 59.5845L348.57 62.0771L367.081 62.0771L367.081 59.5845L348.57 59.5845Z" fill="#EEF2F1"/>
<path d="M367.1 42.1826H364.441V62.028H367.1V42.1826Z" fill="#EEF2F1"/>
<path d="M351.25 47.1675H348.591V62.0276H351.25V47.1675Z" fill="#EEF2F1"/>
<path d="M367.057 62.019L367.057 59.5264L348.546 59.5264L348.546 62.019L367.057 62.019Z" fill="#EEF2F1"/>
<path d="M361.811 49.6796L361.811 47.187L348.618 47.187L348.618 49.6796L361.811 49.6796Z" fill="#EEF2F1"/>
<path d="M348.544 62.0083L351.203 62.0083L351.203 47.1482L348.544 47.1482L348.544 62.0083Z" fill="#EEF2F1"/>
<path d="M359.173 57.0547L361.832 57.0547L361.832 47.1799L359.173 47.1799L359.173 57.0547Z" fill="#EEF2F1"/>
<path d="M348.566 47.0909L348.566 49.5835L361.759 49.5835L361.759 47.0909L348.566 47.0909Z" fill="#EEF2F1"/>
<path d="M353.87 54.646L353.87 57.1387L361.745 57.1387L361.745 54.646L353.87 54.646Z" fill="#EEF2F1"/>
<path d="M356.566 52.0566H353.907V57.042H356.566V52.0566Z" fill="#EEF2F1"/>
<path d="M361.782 47.1675H359.123V57.1381H361.782V47.1675Z" fill="#EEF2F1"/>
<path d="M382.953 34.8003H380.294V71.9984H382.953V34.8003Z" fill="#EEF2F1"/>
<path d="M401.445 72.0001V69.5073H380.275V72.0001H401.445Z" fill="#EEF2F1"/>
<path d="M380.319 69.4462V71.939H420V69.4462H380.319Z" fill="#EEF2F1"/>
<path d="M419.974 52.1533H417.315V71.9987H419.974V52.1533Z" fill="#EEF2F1"/>
<path d="M419.921 39.7928V37.3003L385.558 37.3003V39.7928L419.921 39.7928Z" fill="#EEF2F1"/>
<path d="M419.975 37.2935H417.316V57.1389H419.975V37.2935Z" fill="#EEF2F1"/>
<path d="M388.272 37.293H385.613V67.0131H388.272V37.293Z" fill="#EEF2F1"/>
<path d="M385.571 37.236V39.7285H406.741V37.236H385.571Z" fill="#EEF2F1"/>
<path d="M385.609 64.4877V66.9805H414.654V64.4877H385.609Z" fill="#EEF2F1"/>
<path d="M385.527 66.9731H388.186V47.1278H385.527V66.9731Z" fill="#EEF2F1"/>
<path d="M412.025 66.9731H414.685V42.2383H412.025V66.9731Z" fill="#EEF2F1"/>
<path d="M414.631 67.0684V64.5757H393.461V67.0684H414.631Z" fill="#EEF2F1"/>
<path d="M414.668 44.745V42.2524L390.839 42.2524V44.745L414.668 44.745Z" fill="#EEF2F1"/>
<path d="M414.656 42.2783H411.997V62.1237H414.656V42.2783Z" fill="#EEF2F1"/>
<path d="M393.487 42.2783H390.828V62.0279H393.487V42.2783Z" fill="#EEF2F1"/>
<path d="M390.839 42.1984V44.6909H412.009V42.1984H390.839Z" fill="#EEF2F1"/>
<path d="M390.895 59.5683V62.061H409.406V59.5683H390.895Z" fill="#EEF2F1"/>
<path d="M390.84 62.084H393.499V42.2386H390.84V62.084Z" fill="#EEF2F1"/>
<path d="M406.661 62.0254H409.32V47.1653H406.661V62.0254Z" fill="#EEF2F1"/>
<path d="M409.346 62.067V59.5742H390.835V62.067H409.346Z" fill="#EEF2F1"/>
<path d="M409.378 49.6703V47.1777H396.185V49.6703H409.378Z" fill="#EEF2F1"/>
<path d="M409.442 47.1675H406.783V62.0276H409.442V47.1675Z" fill="#EEF2F1"/>
<path d="M398.804 47.1675H396.145V57.0422H398.804V47.1675Z" fill="#EEF2F1"/>
<path d="M396.142 47.109V49.6016H409.334V47.109H396.142Z" fill="#EEF2F1"/>
<path d="M396.163 54.6005V57.0933H404.038V54.6005H396.163Z" fill="#EEF2F1"/>
<path d="M401.39 57.1191H404.049V52.1338H401.39V57.1191Z" fill="#EEF2F1"/>
<path d="M396.143 57.0811H398.802V47.1104H396.143V57.0811Z" fill="#EEF2F1"/>
<path d="M375.04 37.2095L377.699 37.2095L377.699 0.011322L375.04 0.011322L375.04 37.2095Z" fill="#EEF2F1"/>
<path d="M356.481 0.0350785L356.481 2.52783L377.651 2.52783L377.651 0.0350785L356.481 0.0350785Z" fill="#EEF2F1"/>
<path d="M377.616 2.50338L377.616 0.0107422L337.935 0.0107422L337.935 2.50338L377.616 2.50338Z" fill="#EEF2F1"/>
<path d="M337.933 19.8491L340.592 19.8491L340.592 0.00370026L337.933 0.00370026L337.933 19.8491Z" fill="#EEF2F1"/>
<path d="M337.976 32.1846L337.976 34.6772L372.338 34.6772L372.338 32.1846L337.976 32.1846Z" fill="#EEF2F1"/>
<path d="M337.933 34.7432L340.592 34.7432L340.592 14.8977L337.933 14.8977L337.933 34.7432Z" fill="#EEF2F1"/>
<path d="M369.701 34.7764L372.36 34.7764L372.36 5.05619L369.701 5.05619L369.701 34.7764Z" fill="#EEF2F1"/>
<path d="M372.397 34.7485L372.397 32.2559L351.227 32.2559L351.227 34.7485L372.397 34.7485Z" fill="#EEF2F1"/>
<path d="M372.371 7.46187L372.371 4.96924L343.326 4.96924L343.326 7.46187L372.371 7.46187Z" fill="#EEF2F1"/>
<path d="M372.419 4.98438H369.76V24.8297H372.419V4.98438Z" fill="#EEF2F1"/>
<path d="M345.933 4.98438H343.273V29.7192H345.933V4.98438Z" fill="#EEF2F1"/>
<path d="M343.243 4.93168L343.243 7.42432L364.413 7.42432L364.413 4.93168L343.243 4.93168Z" fill="#EEF2F1"/>
<path d="M343.257 27.2339L343.257 29.7266L367.086 29.7266L367.086 27.2339L343.257 27.2339Z" fill="#EEF2F1"/>
<path d="M343.276 29.7295L345.936 29.7295L345.936 9.88407L343.276 9.88407L343.276 29.7295Z" fill="#EEF2F1"/>
<path d="M364.459 29.7642L367.118 29.7642L367.118 10.0146L364.459 10.0146L364.459 29.7642Z" fill="#EEF2F1"/>
<path d="M367.104 29.8125L367.104 27.3198L345.935 27.3198L345.935 29.8125L367.104 29.8125Z" fill="#EEF2F1"/>
<path d="M367.086 12.416L367.086 9.92334L348.575 9.92334L348.575 12.416L367.086 12.416Z" fill="#EEF2F1"/>
<path d="M367.101 9.96973H364.442V29.8151H367.101V9.96973Z" fill="#EEF2F1"/>
<path d="M351.248 9.96973H348.589V24.8298H351.248V9.96973Z" fill="#EEF2F1"/>
<path d="M348.542 9.981L348.542 12.4736L367.053 12.4736L367.053 9.981L348.542 9.981Z" fill="#EEF2F1"/>
<path d="M348.614 22.3199L348.614 24.8125L361.807 24.8125L361.807 22.3199L348.614 22.3199Z" fill="#EEF2F1"/>
<path d="M348.544 24.854L351.203 24.854L351.203 9.99391L348.544 9.99391L348.544 24.854Z" fill="#EEF2F1"/>
<path d="M359.173 24.8237L361.832 24.8237L361.832 14.949L359.173 14.949L359.173 24.8237Z" fill="#EEF2F1"/>
<path d="M361.763 24.9096L361.763 22.417L348.57 22.417L348.57 24.9096L361.763 24.9096Z" fill="#EEF2F1"/>
<path d="M361.748 17.3545L361.748 14.8618L353.873 14.8618L353.873 17.3545L361.748 17.3545Z" fill="#EEF2F1"/>
<path d="M356.567 14.9551H353.908V19.9404H356.567V14.9551Z" fill="#EEF2F1"/>
<path d="M361.783 14.8594H359.124V24.83H361.783V14.8594Z" fill="#EEF2F1"/>
<path d="M382.953 0.0947266H380.294V37.2929H382.953V0.0947266Z" fill="#EEF2F1"/>
<path d="M380.273 -7.77245e-05V2.49268L401.443 2.49268V-7.77245e-05L380.273 -7.77245e-05Z" fill="#EEF2F1"/>
<path d="M419.902 2.55477V0.0620117L380.221 0.0620117V2.55477L419.902 2.55477Z" fill="#EEF2F1"/>
<path d="M419.974 0.0947266H417.315V19.9401H419.974V0.0947266Z" fill="#EEF2F1"/>
<path d="M385.556 32.2077V34.7002H419.919V32.2077H385.556Z" fill="#EEF2F1"/>
<path d="M419.975 14.8589H417.316V34.7043H419.975V14.8589Z" fill="#EEF2F1"/>
<path d="M388.27 4.98438H385.611V34.7046H388.27V4.98438Z" fill="#EEF2F1"/>
<path d="M406.744 34.765V32.2725L385.574 32.2725V34.765H406.744Z" fill="#EEF2F1"/>
<path d="M414.656 7.51228V5.01953L385.611 5.01953V7.51228L414.656 7.51228Z" fill="#EEF2F1"/>
<path d="M385.526 24.875H388.185V5.02964H385.526V24.875Z" fill="#EEF2F1"/>
<path d="M412.026 29.7646H414.686V5.0298H412.026V29.7646Z" fill="#EEF2F1"/>
<path d="M393.458 4.93156V7.42432L414.628 7.42432V4.93156L393.458 4.93156Z" fill="#EEF2F1"/>
<path d="M390.839 27.2555V29.748H414.668V27.2555H390.839Z" fill="#EEF2F1"/>
<path d="M414.658 9.96924H411.999V29.8147H414.658V9.96924Z" fill="#EEF2F1"/>
<path d="M393.487 9.96973H390.828V29.7193H393.487V9.96973Z" fill="#EEF2F1"/>
<path d="M412.011 29.8026V27.3101L390.841 27.3101V29.8026L412.011 29.8026Z" fill="#EEF2F1"/>
<path d="M409.407 12.4317V9.93896L390.896 9.93896V12.4317L409.407 12.4317Z" fill="#EEF2F1"/>
<path d="M390.84 29.7637H393.499V9.91825H390.84V29.7637Z" fill="#EEF2F1"/>
<path d="M406.661 24.8374H409.32V9.97731H406.661V24.8374Z" fill="#EEF2F1"/>
<path d="M390.832 9.93352V12.4263L409.343 12.4263V9.93352L390.832 9.93352Z" fill="#EEF2F1"/>
<path d="M396.181 22.3288V24.8213H409.374V22.3288H396.181Z" fill="#EEF2F1"/>
<path d="M409.441 9.96924H406.782V24.8293H409.441V9.96924Z" fill="#EEF2F1"/>
<path d="M398.806 14.9546H396.146V24.8293H398.806V14.9546Z" fill="#EEF2F1"/>
<path d="M409.34 24.891V22.3984L396.147 22.3984V24.891L409.34 24.891Z" fill="#EEF2F1"/>
<path d="M404.04 17.399V14.9062L396.165 14.9062V17.399H404.04Z" fill="#EEF2F1"/>
<path d="M401.39 19.8687H404.049V14.8833H401.39V19.8687Z" fill="#EEF2F1"/>
<path d="M396.144 24.8921H398.803V14.9215H396.144V24.8921Z" fill="#EEF2F1"/>
</svg>
