<svg width="100" height="95" viewBox="0 0 100 95" fill="none" xmlns="http://www.w3.org/2000/svg">
<path d="M2.14047 92V93.215H3.35547H42.3138H43.5288V92V52.5833V51.3683H42.3138H25.5864C26.1153 46.8923 27.1809 42.5534 28.7825 38.3492L28.7858 38.3406L28.789 38.3319C31.1604 31.8104 35.9411 24.4565 43.2219 16.2655L44.0949 15.2834L43.0475 14.4899L27.9225 3.03153L27.0639 2.38108L26.3152 3.15555C17.3633 12.4161 10.996 22.026 7.2595 31.99L7.2557 32.0002L7.25209 32.0104C3.83929 41.6283 2.14047 52.1565 2.14047 63.5833V92Z" stroke="#CEB985" stroke-width="2.43"/>
<path d="M56.0988 92V93.215H57.3138H96.2722H97.4872V92V52.5833V51.3683H96.2722H79.5447C80.0737 46.8923 81.1393 42.5534 82.7409 38.3492L82.7442 38.3406L82.7473 38.3319C85.1188 31.8104 89.8994 24.4565 97.1803 16.2655L98.0533 15.2834L97.0058 14.4899L81.8808 3.03153L81.0222 2.38108L80.2736 3.15555C71.3217 12.4161 64.9544 22.026 61.2178 31.99L61.214 32.0002L61.2104 32.0104C57.7976 41.6283 56.0988 52.1565 56.0988 63.5833V92Z" stroke="#CEB985" stroke-width="2.43"/>
</svg>
