<svg width="44" height="44" viewBox="0 0 44 44" fill="none" xmlns="http://www.w3.org/2000/svg">
  <path class="moving" d="M8 22H18M18 22L15.1429 19M18 22L15.1429 25" stroke="currentColor" stroke-linecap="round" stroke-linejoin="round"/>
  <path d="M9.46564 7.06213C9.28814 6.85059 9.31539 6.53466 9.53129 6.3625C12.378 4.09265 15.7932 2.64084 19.4096 2.16846C23.1915 1.67447 27.0358 2.27216 30.4891 3.89104C33.9425 5.50992 36.861 8.08249 38.9005 11.3054C40.9399 14.5283 42.0153 18.2672 41.9998 22.0812C41.9844 25.8952 40.8786 29.6252 38.8131 32.8314C36.7475 36.0377 33.8082 38.5865 30.3418 40.1773C26.8754 41.7681 23.0264 42.3345 19.2487 41.8099C15.6362 41.3081 12.2329 39.8286 9.40475 37.5358C9.19024 37.3618 9.16557 37.0457 9.34478 36.8356C9.52399 36.6255 9.83921 36.6011 10.0539 36.7747C12.7368 38.944 15.9626 40.3439 19.3862 40.8194C22.9751 41.3178 26.6317 40.7797 29.9247 39.2684C33.2178 37.7572 36.0101 35.3358 37.9724 32.2899C39.9347 29.2439 40.9851 25.7004 40.9998 22.0771C41.0146 18.4539 39.9929 14.9019 38.0554 11.8401C36.118 8.77837 33.3454 6.33442 30.0647 4.79649C26.784 3.25855 23.1319 2.69075 19.5391 3.16004C16.1118 3.60772 12.8747 4.98137 10.1743 7.1288C9.95815 7.30067 9.64314 7.27367 9.46564 7.06213Z" fill="currentColor"/>
</svg>
