<svg width="35" height="35" viewBox="0 0 35 35" fill="none" xmlns="http://www.w3.org/2000/svg">
<rect x="0.5" y="0.5" width="34" height="34" rx="17" stroke="currentColor"/>
<path d="M9.92984 16.6615C9.92984 16.6615 16.6377 13.8078 18.9641 12.8029C19.8559 12.401 22.8802 11.1148 22.8802 11.1148C22.8802 11.1148 24.2761 10.5521 24.1598 11.9186C24.121 12.4814 23.8108 14.4509 23.5006 16.5811C23.0353 19.5957 22.5313 22.8916 22.5313 22.8916C22.5313 22.8916 22.4537 23.8161 21.7946 23.9768C21.1354 24.1376 20.0497 23.4142 19.8559 23.2533C19.7008 23.1328 16.9479 21.324 15.9398 20.4398C15.6683 20.1986 15.3582 19.7163 15.9785 19.1536C17.3744 17.8272 19.0416 16.1792 20.0497 15.1342C20.5151 14.6518 20.9803 13.5264 19.0416 14.893C16.2887 16.8625 13.5746 18.7114 13.5746 18.7114C13.5746 18.7114 12.9542 19.1134 11.791 18.7516C10.6277 18.3899 9.27065 17.9076 9.27065 17.9076C9.27065 17.9076 8.34013 17.3047 9.92984 16.6615Z" fill="currentColor"/>
</svg>
