<svg width="35" height="35" viewBox="0 0 35 35" fill="none" xmlns="http://www.w3.org/2000/svg">
<rect x="0.5" y="0.5" width="34" height="34" rx="17" stroke="currentColor"/>
<path fill-rule="evenodd" clip-rule="evenodd" d="M25.9697 13.1771C26.0939 12.7868 25.9697 12.5 25.3781 12.5H23.422C22.9247 12.5 22.6954 12.7478 22.571 13.021C22.571 13.021 21.5763 15.3043 20.1671 16.7875C19.7112 17.2169 19.504 17.3535 19.2553 17.3535C19.131 17.3535 18.951 17.2169 18.951 16.8266V13.1771C18.951 12.7087 18.8066 12.5 18.3921 12.5H15.3183C15.0075 12.5 14.8206 12.7174 14.8206 12.9234C14.8206 13.3674 15.5251 13.4698 15.5978 14.7189V17.4316C15.5978 18.0263 15.4837 18.1341 15.235 18.1341C14.5719 18.1341 12.9589 15.8406 12.0022 13.2162C11.8147 12.7061 11.6266 12.5 11.1267 12.5H9.17066C8.61178 12.5 8.5 12.7478 8.5 13.021C8.5 13.5089 9.16315 15.9289 11.5877 19.1294C13.2041 21.3152 15.4815 22.5 17.5538 22.5C18.7972 22.5 18.951 22.2368 18.951 21.7836V20.1316C18.951 19.6053 19.0688 19.5002 19.4626 19.5002C19.7527 19.5002 20.25 19.6368 21.4105 20.6907C22.7368 21.9397 22.9555 22.5 23.7015 22.5H25.6576C26.2164 22.5 26.4959 22.2368 26.3347 21.7175C26.1583 21.1999 25.525 20.449 24.6848 19.5588C24.2289 19.0514 23.545 18.5049 23.3378 18.2317C23.0477 17.8804 23.1306 17.7243 23.3378 17.412C23.3378 17.412 25.721 14.2505 25.9697 13.1771Z" fill="currentColor"/>
</svg>
