<svg id="logo" viewBox="0 0 101 40" fill="none" xmlns="http://www.w3.org/2000/svg">
<path d="M17.0068 19.3789H18.1939V0L17.0068 1.18703V19.3789Z" fill="#CEB985"/>
<path d="M18.1904 19.4026L18.1904 18.188L8.47338 18.188L8.47338 19.4026L18.1904 19.4026Z" fill="#CEB985"/>
<path d="M0.00756836 18.177L0.00756836 19.3916L18.1994 19.3916L18.1994 18.177L0.00756836 18.177Z" fill="#CEB985"/>
<path d="M0.0166856 19.3906L1.23132 19.3906L1.23132 9.67357L0.0166856 9.67357L0.0166856 19.3906Z" fill="#CEB985"/>
<path d="M15.7842 3.64481L15.7842 2.43018L0.0215855 2.43018L0.0215855 3.64481L15.7842 3.64481Z" fill="#CEB985"/>
<path d="M0.0177842 12.1348L1.23242 12.1348L1.23242 2.41772L0.0177842 2.41772L0.0177842 12.1348Z" fill="#CEB985"/>
<path d="M14.5616 16.9795L15.7762 16.9795L15.7762 2.43153L14.5616 2.43153L14.5616 16.9795Z" fill="#CEB985"/>
<path d="M6.06226 2.40401L6.06226 3.61865L15.7793 3.61865L15.7793 2.40401L6.06226 2.40401Z" fill="#CEB985"/>
<path d="M2.43359 15.7507L2.43359 16.9653L15.7669 16.9653L15.7669 15.7507L2.43359 15.7507Z" fill="#CEB985"/>
<path d="M15.7915 7.26025H14.5769V16.9773H15.7915V7.26025Z" fill="#CEB985"/>
<path d="M3.64527 4.8584H2.43066V16.9771H3.64527V4.8584Z" fill="#CEB985"/>
<path d="M12.1532 16.9856L12.1532 15.771L2.43616 15.771L2.43616 16.9856L12.1532 16.9856Z" fill="#CEB985"/>
<path d="M13.3496 6.06815L13.3496 4.85352L2.44554 4.85352L2.44554 6.06815L13.3496 6.06815Z" fill="#CEB985"/>
<path d="M2.43286 14.5527L3.64746 14.5527L3.64746 4.83569L2.43286 4.83569L2.43286 14.5527Z" fill="#CEB985"/>
<path d="M12.1457 14.5361L13.3604 14.5361L13.3604 4.84669L12.1457 4.84669L12.1457 14.5361Z" fill="#CEB985"/>
<path d="M3.65015 4.85616L3.65015 6.0708L13.3672 6.0708L13.3672 4.85616L3.65015 4.85616Z" fill="#CEB985"/>
<path d="M4.86926 13.3259L4.86926 14.5405L13.3441 14.5405L13.3441 13.3259L4.86926 13.3259Z" fill="#CEB985"/>
<path d="M13.3349 4.83105H12.1202V14.5481H13.3349V4.83105Z" fill="#CEB985"/>
<path d="M6.07401 7.26025H4.85938V14.548H6.07401V7.26025Z" fill="#CEB985"/>
<path d="M13.3574 14.5535L13.3574 13.3389L4.88261 13.3389L4.88261 14.5535L13.3574 14.5535Z" fill="#CEB985"/>
<path d="M10.9293 8.47294L10.9293 7.2583L4.85617 7.2583L4.85617 8.47294L10.9293 8.47294Z" fill="#CEB985"/>
<path d="M4.85958 14.5371L6.07422 14.5371L6.07422 7.24932L4.85958 7.24932L4.85958 14.5371Z" fill="#CEB985"/>
<path d="M9.71114 12.1128L10.9258 12.1128L10.9258 7.25427L9.71114 7.25427L9.71114 12.1128Z" fill="#CEB985"/>
<path d="M4.86133 7.25314L4.86133 8.46777L10.9345 8.46777L10.9345 7.25314L4.86133 7.25314Z" fill="#CEB985"/>
<path d="M7.29993 10.9094L7.29993 12.124L10.9438 12.124L10.9438 10.9094L7.29993 10.9094Z" fill="#CEB985"/>
<path d="M8.50382 9.68945H7.28918V12.1187H8.50382V9.68945Z" fill="#CEB985"/>
<path d="M10.9334 7.26025H9.71875V12.1188H10.9334V7.26025Z" fill="#CEB985"/>
<path d="M20.6228 19.3789H19.4082V0L20.6228 1.18703V19.3789Z" fill="#CEB985"/>
<path d="M29.1064 19.3914V18.1768L19.3894 18.1768V19.3914H29.1064Z" fill="#CEB985"/>
<path d="M19.4081 18.1706V19.3853H37.5999V18.1706H19.4081Z" fill="#CEB985"/>
<path d="M37.6002 9.68945H36.3856V19.4065H37.6002V9.68945Z" fill="#CEB985"/>
<path d="M37.6143 3.65165V2.43701L21.8517 2.43701V3.65165L37.6143 3.65165Z" fill="#CEB985"/>
<path d="M37.6003 2.4292H36.3857V12.1462H37.6003V2.4292Z" fill="#CEB985"/>
<path d="M23.0524 2.40186H21.8378V16.9498H23.0524V2.40186Z" fill="#CEB985"/>
<path d="M21.8202 2.39913V3.61377L31.5372 3.61377V2.39913L21.8202 2.39913Z" fill="#CEB985"/>
<path d="M21.8348 15.7443V16.959H35.1682V15.7443H21.8348Z" fill="#CEB985"/>
<path d="M21.8352 16.9668H23.0498V7.24975H21.8352V16.9668Z" fill="#CEB985"/>
<path d="M33.9526 16.9751H35.1672V4.8564H33.9526V16.9751Z" fill="#CEB985"/>
<path d="M35.1926 16.9978V15.7832L25.4756 15.7832V16.9978H35.1926Z" fill="#CEB985"/>
<path d="M35.1787 6.07499V4.86035L24.2746 4.86035V6.07499L35.1787 6.07499Z" fill="#CEB985"/>
<path d="M35.199 4.8584H33.9844V14.5754H35.199V4.8584Z" fill="#CEB985"/>
<path d="M25.4822 4.8584H24.2676V14.5478H25.4822V4.8584Z" fill="#CEB985"/>
<path d="M24.255 4.83813V6.05273L33.9721 6.05273V4.83813L24.255 4.83813Z" fill="#CEB985"/>
<path d="M24.2871 13.3366V14.5513H32.7619V13.3366H24.2871Z" fill="#CEB985"/>
<path d="M24.2841 14.5635H25.4988V4.84643H24.2841V14.5635Z" fill="#CEB985"/>
<path d="M31.5276 14.5454H32.7422V7.25762H31.5276V14.5454Z" fill="#CEB985"/>
<path d="M32.7598 14.5584V13.3438L24.285 13.3437V14.5584L32.7598 14.5584Z" fill="#CEB985"/>
<path d="M32.7521 8.48612V7.27148L26.6789 7.27148V8.48612L32.7521 8.48612Z" fill="#CEB985"/>
<path d="M32.7692 7.26025H31.5546V14.548H32.7692V7.26025Z" fill="#CEB985"/>
<path d="M27.9108 7.26025H26.6962V12.1188H27.9108V7.26025Z" fill="#CEB985"/>
<path d="M26.6884 7.24435V8.45898H32.7615V7.24435H26.6884Z" fill="#CEB985"/>
<path d="M26.7041 10.905V12.1196H30.348V10.905H26.7041Z" fill="#CEB985"/>
<path d="M29.097 12.1074H30.3116V9.67816H29.097V12.1074Z" fill="#CEB985"/>
<path d="M26.6799 12.125H27.8945V7.26647H26.6799V12.125Z" fill="#CEB985"/>
<path d="M17.0059 20.6211H18.1929V40L17.0059 38.7853V20.6211Z" fill="#CEB985"/>
<path d="M8.50696 20.5915L8.50696 21.8062L18.224 21.8062L18.224 20.5915L8.50696 20.5915Z" fill="#CEB985"/>
<path d="M18.1934 21.8167L18.1934 20.6021L0.00149727 20.6021L0.00149727 21.8167L18.1934 21.8167Z" fill="#CEB985"/>
<path d="M0.0177842 30.3149L1.23242 30.3149L1.23242 20.5979L0.0177842 20.5979L0.0177842 30.3149Z" fill="#CEB985"/>
<path d="M0 36.3488L0 37.5635L15.7626 37.5635L15.7626 36.3488L0 36.3488Z" fill="#CEB985"/>
<path d="M0.0177842 37.5703L1.23242 37.5703L1.23242 27.8533L0.0177842 27.8533L0.0177842 37.5703Z" fill="#CEB985"/>
<path d="M14.5627 37.5845L15.7773 37.5845L15.7773 23.0365L14.5627 23.0365L14.5627 37.5845Z" fill="#CEB985"/>
<path d="M15.7734 37.5901L15.7734 36.3755L6.05639 36.3755L6.05639 37.5901L15.7734 37.5901Z" fill="#CEB985"/>
<path d="M15.7617 24.2434L15.7617 23.0288L2.42838 23.0288L2.42838 24.2434L15.7617 24.2434Z" fill="#CEB985"/>
<path d="M15.7918 23.0225H14.5771V32.7395H15.7918V23.0225Z" fill="#CEB985"/>
<path d="M3.64539 23.0225H2.43079V35.1412H3.64539V23.0225Z" fill="#CEB985"/>
<path d="M2.44238 23.008L2.44238 24.2227L12.1594 24.2227L12.1594 23.008L2.44238 23.008Z" fill="#CEB985"/>
<path d="M2.42395 33.9255L2.42395 35.1401L13.328 35.1401L13.328 33.9255L2.42395 33.9255Z" fill="#CEB985"/>
<path d="M2.43298 35.1523L3.64758 35.1523L3.64758 25.4353L2.43298 25.4353L2.43298 35.1523Z" fill="#CEB985"/>
<path d="M12.1467 35.1416L13.3613 35.1416L13.3613 25.4522L12.1467 25.4522L12.1467 35.1416Z" fill="#CEB985"/>
<path d="M13.3623 35.138L13.3623 33.9233L3.64525 33.9233L3.64525 35.138L13.3623 35.138Z" fill="#CEB985"/>
<path d="M13.3379 26.6687L13.3379 25.4541L4.86308 25.4541L4.86308 26.6687L13.3379 26.6687Z" fill="#CEB985"/>
<path d="M13.3349 25.4521H12.1202V35.1692H13.3349V25.4521Z" fill="#CEB985"/>
<path d="M6.07511 25.4517H4.86047V32.7394H6.07511V25.4517Z" fill="#CEB985"/>
<path d="M4.86133 25.4402L4.86133 26.6548L13.3361 26.6548L13.3361 25.4402L4.86133 25.4402Z" fill="#CEB985"/>
<path d="M4.8623 31.5212L4.8623 32.7358L10.9355 32.7358L10.9355 31.5212L4.8623 31.5212Z" fill="#CEB985"/>
<path d="M4.86056 32.7393L6.0752 32.7393L6.0752 25.4515L4.86056 25.4515L4.86056 32.7393Z" fill="#CEB985"/>
<path d="M9.71114 32.7339L10.9258 32.7339L10.9258 27.8754L9.71114 27.8754L9.71114 32.7339Z" fill="#CEB985"/>
<path d="M10.9287 32.741L10.9287 31.5264L4.85556 31.5264L4.85556 32.741L10.9287 32.741Z" fill="#CEB985"/>
<path d="M10.9111 29.0847L10.9111 27.8701L7.26724 27.8701L7.26724 29.0847L10.9111 29.0847Z" fill="#CEB985"/>
<path d="M8.50468 27.8809H7.29004V30.3101H8.50468V27.8809Z" fill="#CEB985"/>
<path d="M10.9334 27.8809H9.71875V32.7394H10.9334V27.8809Z" fill="#CEB985"/>
<path d="M20.6229 20.6216H19.4083V40.0005L20.6229 38.7858V20.6216Z" fill="#CEB985"/>
<path d="M19.423 20.6037V21.8184H29.14V20.6037H19.423Z" fill="#CEB985"/>
<path d="M37.5938 21.824V20.6094L19.4019 20.6094V21.824L37.5938 21.824Z" fill="#CEB985"/>
<path d="M37.6003 20.5938H36.3857V30.3108H37.6003V20.5938Z" fill="#CEB985"/>
<path d="M21.8301 36.343V37.5576H37.5927V36.343H21.8301Z" fill="#CEB985"/>
<path d="M37.6006 27.854H36.386V37.5711H37.6006V27.854Z" fill="#CEB985"/>
<path d="M23.0527 23.0229H21.838V37.5709H23.0527V23.0229Z" fill="#CEB985"/>
<path d="M31.5314 37.5955V36.3809H21.8143V37.5955H31.5314Z" fill="#CEB985"/>
<path d="M35.1622 24.2503V23.0356L21.8289 23.0356V24.2503L35.1622 24.2503Z" fill="#CEB985"/>
<path d="M21.8353 32.7393H23.0499V23.0222H21.8353V32.7393Z" fill="#CEB985"/>
<path d="M33.9514 35.1313H35.166V23.0126H33.9514V35.1313Z" fill="#CEB985"/>
<path d="M25.4805 22.9958V24.2104H35.1975V22.9958H25.4805Z" fill="#CEB985"/>
<path d="M24.2529 33.9192V35.1338H35.157V33.9192H24.2529Z" fill="#CEB985"/>
<path d="M35.199 25.4248H33.9844V35.1419H35.199V25.4248Z" fill="#CEB985"/>
<path d="M25.4823 25.4521H24.2677V35.1416H25.4823V25.4521Z" fill="#CEB985"/>
<path d="M33.9659 35.1565V33.9419H24.2489V35.1565H33.9659Z" fill="#CEB985"/>
<path d="M32.756 26.6575V25.4429H24.2812V26.6575H32.756Z" fill="#CEB985"/>
<path d="M24.2844 35.1416H25.499V25.4246H24.2844V35.1416Z" fill="#CEB985"/>
<path d="M31.5286 32.7314H32.7432V25.4437H31.5286V32.7314Z" fill="#CEB985"/>
<path d="M24.2637 25.4367V26.6514H32.7385V25.4367H24.2637Z" fill="#CEB985"/>
<path d="M26.6855 31.508V32.7227H32.7587V31.508H26.6855Z" fill="#CEB985"/>
<path d="M32.7703 25.4521H31.5557V32.7399H32.7703V25.4521Z" fill="#CEB985"/>
<path d="M27.9108 27.8818H26.6962V32.7404H27.9108V27.8818Z" fill="#CEB985"/>
<path d="M32.7557 32.7508V31.5361H26.6826V32.7508H32.7557Z" fill="#CEB985"/>
<path d="M30.3135 29.0891V27.8745H26.6696V29.0891H30.3135Z" fill="#CEB985"/>
<path d="M29.0969 30.3101H30.3115V27.8808H29.0969V30.3101Z" fill="#CEB985"/>
<path d="M26.6789 32.7217H27.8936V27.8632H26.6789V32.7217Z" fill="#CEB985"/>
<path d="M43.0663 2.4292H41.2168V30.3933H43.0663V2.4292Z" fill="currentColor"/>
<path d="M87.787 2.4292H85.9375V30.3933H87.787V2.4292Z" fill="currentColor"/>
<path d="M78.4854 22.871V21.0215L63.7718 21.0215V22.871L78.4854 22.871Z" fill="currentColor"/>
<path d="M56.1104 30.3642V28.5146L41.2035 28.5146V30.3642L56.1104 30.3642Z" fill="currentColor"/>
<path d="M82.2108 30.3657L71.9693 4.74804L71.0307 2.4292L70.0921 4.74804L59.8506 30.3657H61.7001L71.0307 7.06688L80.3613 30.3657H82.2108Z" fill="currentColor"/>
<path d="M93.3905 17.3358H86.71V15.4863H93.3905C94.329 15.4863 98.9667 15.2102 98.9667 9.88239C98.9667 8.94381 98.6907 4.27852 93.28 4.27852C89.5257 4.27852 86.7928 4.27852 86.7928 4.27852V2.40137C86.7928 2.40137 89.5257 2.40137 93.28 2.40137C99.2428 2.40137 100.816 7.09426 100.816 9.85478C100.844 12.6429 99.2704 17.3358 93.3905 17.3358Z" fill="currentColor"/>
<path d="M90.244 17.3359H87.7871L98.5256 30.3656H100.9L90.244 17.3359Z" fill="currentColor"/>
<path d="M42.5969 33.9819C42.8729 33.9819 43.1214 34.0371 43.3146 34.12C43.5355 34.2028 43.7011 34.3408 43.8391 34.5064C43.9772 34.6721 44.0876 34.8377 44.1704 35.0585C44.2532 35.2794 44.2808 35.5002 44.2808 35.7211C44.2808 35.9419 44.2532 36.1628 44.1704 36.3836C44.0876 36.6044 43.9772 36.7701 43.8391 36.9357C43.7011 37.1013 43.5079 37.2394 43.3146 37.3222C43.0938 37.4326 42.8453 37.4602 42.5969 37.4602H41.327V33.9819H42.5969ZM42.5693 36.9633C42.7625 36.9633 42.9005 36.9357 43.0386 36.8529C43.1766 36.7977 43.287 36.6872 43.3974 36.5768C43.5078 36.4664 43.5631 36.3284 43.6183 36.1904C43.6735 36.0523 43.7011 35.8867 43.7011 35.7211C43.7011 35.5554 43.6735 35.3898 43.6183 35.2518C43.5631 35.1138 43.4802 34.9757 43.3974 34.8653C43.287 34.7549 43.1766 34.6721 43.0386 34.5893C42.9005 34.534 42.7349 34.4788 42.5693 34.4788H41.8791V36.9081H42.5693V36.9633Z" fill="currentColor"/>
<path d="M49.4703 34.5064H47.9244V35.4174H49.3875V35.9419H47.9244V36.9633H49.4979V37.4878H47.3447V33.9819H49.4703V34.5064Z" fill="currentColor"/>
<path d="M53.8602 36.494L54.3295 35.2242L54.8263 33.9819H55.4337V34.0647L53.9706 37.5154H53.7221L52.2314 34.0647V33.9819H52.8388L53.3357 35.1966L53.8602 36.494Z" fill="currentColor"/>
<path d="M60.4852 34.5064H58.9393V35.4174H60.4024V35.9419H58.9393V36.9633H60.5128V37.4878H58.3596V33.9819H60.4852V34.5064Z" fill="currentColor"/>
<path d="M64.2115 36.9633H65.7022V37.4878H63.6042V33.9819H64.184V36.9633H64.2115Z" fill="currentColor"/>
<path d="M71.8587 35.7487C71.8587 36.0248 71.8035 36.2456 71.7207 36.4941C71.6378 36.7149 71.4998 36.9081 71.3618 37.0738C71.1961 37.2394 71.0305 37.3498 70.8097 37.4326C70.5888 37.5154 70.3404 37.5707 70.0919 37.5707C69.8435 37.5707 69.6226 37.5431 69.4018 37.4602C69.181 37.3774 68.9877 37.267 68.8497 37.1014C68.6841 36.9357 68.5736 36.7701 68.4632 36.5217C68.3804 36.3008 68.3252 36.0524 68.3252 35.7487C68.3252 35.4727 68.3804 35.1966 68.4632 34.9758C68.546 34.7549 68.6841 34.5617 68.8497 34.3961C69.0153 34.2304 69.2086 34.12 69.4294 34.0372C69.6502 33.9544 69.8711 33.9268 70.1195 33.9268C70.368 33.9268 70.5888 33.9544 70.8097 34.0372C71.0305 34.12 71.2237 34.2304 71.3618 34.3961C71.4998 34.5617 71.6654 34.7273 71.7483 34.9758C71.8311 35.1966 71.8587 35.445 71.8587 35.7487ZM68.9049 35.7487C68.9049 35.9419 68.9325 36.1352 68.9877 36.3008C69.0429 36.4664 69.1258 36.5769 69.2362 36.6873C69.3466 36.7977 69.457 36.8805 69.6226 36.9357C69.7607 36.9909 69.9263 37.0185 70.0919 37.0185C70.2576 37.0185 70.3956 36.9909 70.5612 36.9357C70.7268 36.8805 70.8373 36.7977 70.9477 36.6873C71.0581 36.5769 71.1409 36.4388 71.1961 36.3008C71.2514 36.1352 71.2789 35.9695 71.2789 35.7487C71.2789 35.5555 71.2514 35.3622 71.1961 35.2242C71.1409 35.0586 71.0581 34.9482 70.9477 34.8377C70.8373 34.7273 70.7268 34.6445 70.5612 34.5893C70.4232 34.5341 70.2576 34.5065 70.0919 34.5065C69.9263 34.5065 69.7607 34.5341 69.6226 34.5893C69.4846 34.6445 69.3466 34.7273 69.2362 34.8377C69.1258 34.9482 69.0429 35.0862 68.9877 35.2242C68.9325 35.3622 68.9049 35.5279 68.9049 35.7487Z" fill="currentColor"/>
<path d="M74.9226 37.4878V33.9819H76.3857C76.5789 33.9819 76.7445 34.0095 76.9102 34.0924C77.0758 34.1476 77.1862 34.258 77.2967 34.3684C77.4071 34.4788 77.4899 34.6169 77.5451 34.7549C77.6003 34.8929 77.6279 35.0585 77.6279 35.2242C77.6279 35.3898 77.6003 35.5554 77.5451 35.6935C77.4899 35.8315 77.4071 35.9695 77.2967 36.0799C77.1862 36.1904 77.0482 36.2732 76.9102 36.356C76.7721 36.4112 76.5789 36.4664 76.3857 36.4664H75.5299V37.5154H74.9226V37.4878ZM76.3581 35.9143C76.4685 35.9143 76.5513 35.8867 76.6341 35.8591C76.7169 35.8315 76.7998 35.7763 76.855 35.6935C76.9102 35.6383 76.9654 35.5554 76.993 35.4726C77.0206 35.3898 77.0482 35.2794 77.0482 35.1966C77.0482 35.0861 77.0206 35.0033 76.993 34.9205C76.9654 34.8377 76.9102 34.7549 76.855 34.6997C76.7998 34.6445 76.7169 34.5893 76.6341 34.5616C76.5513 34.534 76.4685 34.5064 76.3581 34.5064H75.4747V35.9419H76.3581V35.9143Z" fill="currentColor"/>
<path d="M83.618 33.9819H83.8388V37.4878H83.2591V35.307L82.2377 36.6044H82.1549L81.1335 35.307V37.4878H80.5538V33.9819H80.7747L82.2101 35.8039L83.618 33.9819Z" fill="currentColor"/>
<path d="M89.2221 34.5064H87.6763V35.4174H89.1394V35.9419H87.6763V36.9633H89.2498V37.4878H87.0966V33.9819H89.2221V34.5064Z" fill="currentColor"/>
<path d="M92.8929 35.1138L92.9205 36.218V37.4878H92.3408V33.9819H92.5617L94.6873 36.3284L94.6597 35.2518V33.9819H95.2394V37.4878H95.0461L92.8929 35.1138Z" fill="currentColor"/>
<path d="M98.1385 34.5064V33.9819H100.733V34.5064H99.712V37.4878H99.1323V34.5064H98.1385Z" fill="currentColor"/>
</svg>
