<?xml version="1.0" encoding="utf-8"?><svg viewBox="0 0 44 44" xmlns="http://www.w3.org/2000/svg" xmlns:xlink="http://www.w3.org/1999/xlink"><style>:root>svg{display:none}:root>svg:target{display:block}</style><svg viewBox="0 0 16 16" fill="none" id="filters" xmlns="http://www.w3.org/2000/svg">
  <path d="M2.66669 14V9.33333M2.66669 6.66667V2M8.00002 14V8M8.00002 5.33333V2M13.3334 14V10.6667M13.3334 8V2M0.666687 9.33333H4.66669M6.00002 5.33333H10M11.3334 10.6667H15.3334" stroke="currentColor" stroke-width="1.5" stroke-linecap="round" stroke-linejoin="round"/>
</svg><svg viewBox="0 0 16 16" fill="none" id="phone" xmlns="http://www.w3.org/2000/svg">
<path d="M14.9996 11.4817V13.5893C15.0004 13.7849 14.9602 13.9786 14.8817 14.1578C14.8031 14.3371 14.6879 14.498 14.5435 14.6303C14.399 14.7626 14.2285 14.8633 14.0428 14.9259C13.8571 14.9886 13.6603 15.0119 13.465 14.9943C11.299 14.7594 9.2183 14.0207 7.39023 12.8376C5.68945 11.7589 4.24748 10.3198 3.16674 8.62243C1.9771 6.78969 1.23677 4.70306 1.00571 2.53156C0.988123 2.33729 1.01126 2.1415 1.07364 1.95664C1.13603 1.77178 1.2363 1.60191 1.36807 1.45785C1.49984 1.31378 1.66022 1.19868 1.839 1.11986C2.01779 1.04105 2.21106 1.00025 2.40651 1.00007H4.51826C4.85987 0.996713 5.19105 1.11744 5.45007 1.33976C5.70909 1.56208 5.87828 1.87081 5.92609 2.20841C6.01522 2.88287 6.18052 3.54511 6.41883 4.18249C6.51354 4.43394 6.53403 4.70721 6.47789 4.96993C6.42175 5.23265 6.29132 5.4738 6.10207 5.66481L5.20809 6.55701C6.21016 8.31581 7.6693 9.77206 9.43159 10.7721L10.3256 9.87994C10.5169 9.69106 10.7586 9.56089 11.0218 9.50486C11.2851 9.44883 11.5589 9.46929 11.8108 9.56381C12.4495 9.80164 13.113 9.96662 13.7888 10.0556C14.1308 10.1037 14.4431 10.2756 14.6663 10.5386C14.8895 10.8015 15.0081 11.1372 14.9996 11.4817Z" fill="white"/>
</svg><svg viewBox="0 0 44 44" fill="none" id="roundRight" xmlns="http://www.w3.org/2000/svg">
  <path class="cmoving" d="M8 22H18M18 22L15.1429 19M18 22L15.1429 25" stroke="currentColor" stroke-linecap="round" stroke-linejoin="round"/>
  <path d="M9.46564 7.06213C9.28814 6.85059 9.31539 6.53466 9.53129 6.3625C12.378 4.09265 15.7932 2.64084 19.4096 2.16846C23.1915 1.67447 27.0358 2.27216 30.4891 3.89104C33.9425 5.50992 36.861 8.08249 38.9005 11.3054C40.9399 14.5283 42.0153 18.2672 41.9998 22.0812C41.9844 25.8952 40.8786 29.6252 38.8131 32.8314C36.7475 36.0377 33.8082 38.5865 30.3418 40.1773C26.8754 41.7681 23.0264 42.3345 19.2487 41.8099C15.6362 41.3081 12.2329 39.8286 9.40475 37.5358C9.19024 37.3618 9.16557 37.0457 9.34478 36.8356C9.52399 36.6255 9.83921 36.6011 10.0539 36.7747C12.7368 38.944 15.9626 40.3439 19.3862 40.8194C22.9751 41.3178 26.6317 40.7797 29.9247 39.2684C33.2178 37.7572 36.0101 35.3358 37.9724 32.2899C39.9347 29.2439 40.9851 25.7004 40.9998 22.0771C41.0146 18.4539 39.9929 14.9019 38.0554 11.8401C36.118 8.77837 33.3454 6.33442 30.0647 4.79649C26.784 3.25855 23.1319 2.69075 19.5391 3.16004C16.1118 3.60772 12.8747 4.98137 10.1743 7.1288C9.95815 7.30067 9.64314 7.27367 9.46564 7.06213Z" fill="currentColor"/>
</svg><svg viewBox="0 0 16 16" fill="none" id="simpleDown" xmlns="http://www.w3.org/2000/svg">
  <path d="M8 3V13M8 13L11 10.1429M8 13L5 10.1429" stroke="currentColor" stroke-width="1.5" stroke-linecap="round" stroke-linejoin="round"/>
</svg><svg viewBox="0 0 16 16" fill="none" id="simpleRight" xmlns="http://www.w3.org/2000/svg">
  <path d="M3 8H13M13 8L10.1429 5M13 8L10.1429 11" stroke="currentColor" stroke-linecap="round" stroke-linejoin="round"/>
</svg><svg viewBox="0 0 35 35" fill="none" id="tg" xmlns="http://www.w3.org/2000/svg">
<rect x="0.5" y="0.5" width="34" height="34" rx="17" stroke="currentColor"/>
<path d="M9.92984 16.6615C9.92984 16.6615 16.6377 13.8078 18.9641 12.8029C19.8559 12.401 22.8802 11.1148 22.8802 11.1148C22.8802 11.1148 24.2761 10.5521 24.1598 11.9186C24.121 12.4814 23.8108 14.4509 23.5006 16.5811C23.0353 19.5957 22.5313 22.8916 22.5313 22.8916C22.5313 22.8916 22.4537 23.8161 21.7946 23.9768C21.1354 24.1376 20.0497 23.4142 19.8559 23.2533C19.7008 23.1328 16.9479 21.324 15.9398 20.4398C15.6683 20.1986 15.3582 19.7163 15.9785 19.1536C17.3744 17.8272 19.0416 16.1792 20.0497 15.1342C20.5151 14.6518 20.9803 13.5264 19.0416 14.893C16.2887 16.8625 13.5746 18.7114 13.5746 18.7114C13.5746 18.7114 12.9542 19.1134 11.791 18.7516C10.6277 18.3899 9.27065 17.9076 9.27065 17.9076C9.27065 17.9076 8.34013 17.3047 9.92984 16.6615Z" fill="currentColor"/>
</svg><svg viewBox="0 0 35 35" fill="none" id="vk" xmlns="http://www.w3.org/2000/svg">
<rect x="0.5" y="0.5" width="34" height="34" rx="17" stroke="currentColor"/>
<path fill-rule="evenodd" clip-rule="evenodd" d="M25.9697 13.1771C26.0939 12.7868 25.9697 12.5 25.3781 12.5H23.422C22.9247 12.5 22.6954 12.7478 22.571 13.021C22.571 13.021 21.5763 15.3043 20.1671 16.7875C19.7112 17.2169 19.504 17.3535 19.2553 17.3535C19.131 17.3535 18.951 17.2169 18.951 16.8266V13.1771C18.951 12.7087 18.8066 12.5 18.3921 12.5H15.3183C15.0075 12.5 14.8206 12.7174 14.8206 12.9234C14.8206 13.3674 15.5251 13.4698 15.5978 14.7189V17.4316C15.5978 18.0263 15.4837 18.1341 15.235 18.1341C14.5719 18.1341 12.9589 15.8406 12.0022 13.2162C11.8147 12.7061 11.6266 12.5 11.1267 12.5H9.17066C8.61178 12.5 8.5 12.7478 8.5 13.021C8.5 13.5089 9.16315 15.9289 11.5877 19.1294C13.2041 21.3152 15.4815 22.5 17.5538 22.5C18.7972 22.5 18.951 22.2368 18.951 21.7836V20.1316C18.951 19.6053 19.0688 19.5002 19.4626 19.5002C19.7527 19.5002 20.25 19.6368 21.4105 20.6907C22.7368 21.9397 22.9555 22.5 23.7015 22.5H25.6576C26.2164 22.5 26.4959 22.2368 26.3347 21.7175C26.1583 21.1999 25.525 20.449 24.6848 19.5588C24.2289 19.0514 23.545 18.5049 23.3378 18.2317C23.0477 17.8804 23.1306 17.7243 23.3378 17.412C23.3378 17.412 25.721 14.2505 25.9697 13.1771Z" fill="currentColor"/>
</svg></svg>