<svg width="160" height="64" viewBox="0 0 160 64" fill="none" xmlns="http://www.w3.org/2000/svg">
<path d="M152.877 63V56.61L154.527 58.02H149.697C147.757 58.02 146.077 57.71 144.657 57.09C143.257 56.45 142.177 55.54 141.417 54.36C140.657 53.18 140.277 51.77 140.277 50.13C140.277 48.45 140.667 47.01 141.447 45.81C142.247 44.59 143.377 43.65 144.837 42.99C146.297 42.33 148.017 42 149.997 42H159.837V63H152.877ZM140.367 63L145.647 55.35H152.697L147.777 63H140.367ZM152.877 54.39V45.75L154.527 47.46H150.117C149.217 47.46 148.537 47.67 148.077 48.09C147.637 48.51 147.417 49.15 147.417 50.01C147.417 50.89 147.647 51.56 148.107 52.02C148.567 52.46 149.237 52.68 150.117 52.68H154.527L152.877 54.39Z" fill="#EBEBEB"/>
<path d="M114.46 63L123.64 42H130.6L139.78 63H132.46L125.68 45.36H128.44L121.66 63H114.46ZM119.92 59.34L121.72 54.24H131.38L133.18 59.34H119.92Z" fill="#EBEBEB"/>
<path d="M106.492 63L101.271 53.16L106.911 49.86L114.471 63H106.492ZM93.4115 63V42H100.492V63H93.4115ZM98.4515 55.41V49.83H106.401V55.41H98.4515ZM107.602 53.25L101.091 52.59L107.121 42H114.502L107.602 53.25Z" fill="#EBEBEB"/>
<path d="M81.1324 63.48C79.4524 63.48 77.8924 63.22 76.4524 62.7C75.0324 62.16 73.7924 61.4 72.7324 60.42C71.6924 59.44 70.8824 58.28 70.3024 56.94C69.7224 55.6 69.4324 54.12 69.4324 52.5C69.4324 50.88 69.7224 49.4 70.3024 48.06C70.8824 46.72 71.6924 45.56 72.7324 44.58C73.7924 43.6 75.0324 42.85 76.4524 42.33C77.8924 41.79 79.4524 41.52 81.1324 41.52C83.1924 41.52 85.0124 41.88 86.5924 42.6C88.1924 43.32 89.5124 44.36 90.5524 45.72L86.0824 49.71C85.4624 48.93 84.7724 48.33 84.0124 47.91C83.2724 47.47 82.4324 47.25 81.4924 47.25C80.7524 47.25 80.0824 47.37 79.4824 47.61C78.8824 47.85 78.3624 48.2 77.9224 48.66C77.5024 49.12 77.1724 49.68 76.9324 50.34C76.6924 50.98 76.5724 51.7 76.5724 52.5C76.5724 53.3 76.6924 54.03 76.9324 54.69C77.1724 55.33 77.5024 55.88 77.9224 56.34C78.3624 56.8 78.8824 57.15 79.4824 57.39C80.0824 57.63 80.7524 57.75 81.4924 57.75C82.4324 57.75 83.2724 57.54 84.0124 57.12C84.7724 56.68 85.4624 56.07 86.0824 55.29L90.5524 59.28C89.5124 60.62 88.1924 61.66 86.5924 62.4C85.0124 63.12 83.1924 63.48 81.1324 63.48Z" fill="#EBEBEB"/>
<path d="M47.5532 63V42H57.6632C59.6232 42 61.3132 42.32 62.7332 42.96C64.1732 43.6 65.2832 44.52 66.0632 45.72C66.8432 46.9 67.2332 48.3 67.2332 49.92C67.2332 51.54 66.8432 52.94 66.0632 54.12C65.2832 55.3 64.1732 56.22 62.7332 56.88C61.3132 57.52 59.6232 57.84 57.6632 57.84H51.4832L54.6332 54.81V63H47.5532ZM54.6332 55.59L51.4832 52.38H57.2132C58.1932 52.38 58.9132 52.16 59.3732 51.72C59.8532 51.28 60.0932 50.68 60.0932 49.92C60.0932 49.16 59.8532 48.56 59.3732 48.12C58.9132 47.68 58.1932 47.46 57.2132 47.46H51.4832L54.6332 44.25V55.59Z" fill="#EBEBEB"/>
<path d="M25.8626 57.51C27.1026 57.83 28.0726 57.94 28.7726 57.84C29.4726 57.72 30.0926 57.29 30.6326 56.55L31.6526 55.11L32.2526 54.45L38.3426 42H45.1826L36.7526 57.81C35.8326 59.53 34.7226 60.87 33.4226 61.83C32.1426 62.77 30.7226 63.31 29.1626 63.45C27.6026 63.59 25.9526 63.31 24.2126 62.61L25.8626 57.51ZM32.1626 60L22.3826 42H29.8526L36.0026 55.11L32.1626 60Z" fill="#EBEBEB"/>
<path d="M13.2431 63L8.02309 53.16L13.6631 49.86L21.2231 63H13.2431ZM0.163086 63V42H7.24309V63H0.163086ZM5.20309 55.41V49.83H13.1531V55.41H5.20309ZM14.3531 53.25L7.84309 52.59L13.8731 42H21.2531L14.3531 53.25Z" fill="#EBEBEB"/>
<path d="M62.6463 12.5544L52.1468 1.91991L46.4831 7.51172L56.9826 18.1462L62.6463 12.5544Z" fill="#EBEBEB"/>
<g filter="url(#filter0_d_305_1024)">
<path d="M96.8255 20.4854C94.6213 22.7517 91.6912 24 88.5745 24C85.4577 24 82.5276 22.7517 80.3238 20.4857C80.3238 20.4854 69.4348 9.28224 69.4348 9.28224C67.9773 7.7837 65.6062 7.7837 64.149 9.28224C63.443 10.008 63.0544 10.9734 63.0544 12C63.0544 13.0266 63.443 13.992 64.149 14.7178C64.8778 15.4672 65.8348 15.8418 66.7918 15.8418C67.7487 15.8418 68.7061 15.4669 69.4345 14.7178L70.2073 13.923L75.8142 19.692L75.0428 20.4854C72.839 22.7517 69.9088 24 66.7918 24C63.675 24 60.7445 22.7517 58.5407 20.4854C56.3369 18.2186 55.1231 15.2052 55.1231 12C55.1231 8.79476 56.3369 5.78104 58.5407 3.51465C60.7445 1.24825 63.675 0 66.7918 0C69.9085 0 72.8386 1.2479 75.0425 3.51429L83.2894 11.9993L85.9238 14.71L85.9314 14.7178C87.3889 16.2163 89.76 16.2163 91.2172 14.7178C91.9232 13.992 92.3119 13.0266 92.3119 12C92.3119 10.9734 91.9232 10.008 91.2172 9.28224C89.76 7.7837 87.3889 7.7837 85.9314 9.28224L85.1586 10.077L79.5516 4.30799L80.3234 3.51465C82.5272 1.24825 85.4574 0 88.5741 0C91.6908 0 94.6213 1.24825 96.8252 3.51465C99.0293 5.78104 100.243 8.79476 100.243 12C100.243 15.2052 99.0293 18.2186 96.8255 20.4854Z" fill="#EBEBEB"/>
</g>
<defs>
<filter id="filter0_d_305_1024" x="53.1231" y="0" width="49.12" height="28" filterUnits="userSpaceOnUse" color-interpolation-filters="sRGB">
<feFlood flood-opacity="0" result="BackgroundImageFix"/>
<feColorMatrix in="SourceAlpha" type="matrix" values="0 0 0 0 0 0 0 0 0 0 0 0 0 0 0 0 0 0 127 0" result="hardAlpha"/>
<feOffset dy="2"/>
<feGaussianBlur stdDeviation="1"/>
<feComposite in2="hardAlpha" operator="out"/>
<feColorMatrix type="matrix" values="0 0 0 0 0 0 0 0 0 0 0 0 0 0 0 0 0 0 0.25 0"/>
<feBlend mode="normal" in2="BackgroundImageFix" result="effect1_dropShadow_305_1024"/>
<feBlend mode="normal" in="SourceGraphic" in2="effect1_dropShadow_305_1024" result="shape"/>
</filter>
</defs>
</svg>
