<svg width="116" height="120" viewBox="0 0 116 120" fill="none" xmlns="http://www.w3.org/2000/svg">
<path d="M66.0046 25.6885L70.9981 28.8802C71.4615 29.1891 72.0792 29.1891 72.594 28.8802L77.5876 25.6885C77.4846 25.4826 77.5361 25.534 77.4331 25.3281L71.7703 27.3358L66.159 25.3796C66.0561 25.534 66.1075 25.4826 66.0046 25.6885Z" fill="#8C694B"/>
<path d="M66.0046 34.1314L70.9981 37.3231C71.4615 37.632 72.0792 37.632 72.594 37.3231L77.5876 34.1314C77.4846 33.9254 77.5361 33.9769 77.4331 33.771L71.7703 35.7787L66.1075 33.771C66.056 33.9769 66.0561 33.9254 66.0046 34.1314Z" fill="#8C694B"/>
<path d="M66.0046 17.2459L70.9981 20.4377C71.4615 20.7465 72.0792 20.7465 72.594 20.4377L77.5876 17.2459C77.4846 17.04 77.5361 17.0915 77.4331 16.937L71.7703 18.9447L66.159 16.9885C66.0561 17.0915 66.1075 17.04 66.0046 17.2459Z" fill="#8C694B"/>
<path d="M53.3914 25.6888L58.3849 28.8805C58.8483 29.1894 59.466 29.1894 59.9808 28.8805L64.9744 25.6888C64.8714 25.4828 64.9229 25.5343 64.8199 25.3799L59.1571 27.3876L53.5458 25.4314C53.4943 25.5343 53.4943 25.4828 53.3914 25.6888Z" fill="#8C694B"/>
<path d="M53.3914 34.1311L58.3849 37.3229C58.8483 37.6318 59.466 37.6318 59.9808 37.3229L64.9744 34.1311C64.8714 33.9252 64.9229 33.9767 64.8199 33.8223L59.1571 35.83L53.5458 33.8737C53.4943 33.9767 53.4943 33.9252 53.3914 34.1311Z" fill="#8C694B"/>
<path d="M59.6725 42.3679L64.6661 45.5597C65.1294 45.8685 65.7472 45.8685 66.262 45.5597L71.2555 42.3679C71.1526 42.162 71.2041 42.2135 71.1011 42.0075L65.4898 43.9638L59.827 41.9561C59.7755 42.2649 59.7755 42.162 59.6725 42.3679Z" fill="#8C694B"/>
<path d="M47.1121 42.368L52.1056 45.5597C52.569 45.8686 53.1867 45.8686 53.7015 45.5597L58.6951 42.368C58.5921 42.162 58.6436 42.2135 58.5406 42.0591L52.8778 44.0668L47.2665 42.1106C47.215 42.265 47.215 42.162 47.1121 42.368Z" fill="#8C694B"/>
<path d="M59.7234 8.80302L64.717 11.9948C65.1803 12.3037 65.798 12.3037 66.3128 11.9948L71.3064 8.80302C71.2035 8.5971 71.2549 8.64858 71.152 8.49414L65.4892 10.5019L59.8778 8.54562C59.7749 8.64858 59.7749 8.5971 59.7234 8.80302Z" fill="#8C694B"/>
<path d="M47.1121 8.80274L52.1056 11.9945C52.569 12.3034 53.1867 12.3034 53.7015 11.9945L58.6951 8.80274C58.5921 8.59682 58.6436 8.6483 58.5406 8.44238L52.9293 10.3986L47.318 8.44238C47.215 8.6483 47.215 8.59682 47.1121 8.80274Z" fill="#8C694B"/>
<path d="M53.3914 17.2458L58.3849 20.4376C58.8483 20.7465 59.466 20.7465 59.9808 20.4376L64.9744 17.2458C64.8714 17.0399 64.9229 17.0914 64.8199 16.8855L59.2086 18.8417L53.5458 16.834C53.4943 17.0914 53.4943 17.0399 53.3914 17.2458Z" fill="#8C694B"/>
<path d="M53.3914 0.36036L58.3849 3.55212C58.8483 3.861 59.466 3.861 59.9808 3.55212L64.9744 0.36036C64.8714 0.15444 64.9229 0.20592 64.8199 0.0514801L59.1571 2.0592L53.5973 0C53.4943 0.20592 53.4943 0.15444 53.3914 0.36036Z" fill="#8C694B"/>
<path d="M40.8308 25.6885L45.8244 28.8802C46.2877 29.1891 46.9055 29.1891 47.4203 28.8802L52.4138 25.6885C52.3109 25.4826 52.3624 25.534 52.2594 25.3281L46.6481 27.2844L41.0367 25.3281C40.8823 25.534 40.9338 25.4826 40.8308 25.6885Z" fill="#8C694B"/>
<path d="M40.8308 34.1311L45.8244 37.3229C46.2877 37.6318 46.9055 37.6318 47.4203 37.3229L52.4138 34.1311C52.3109 33.9252 52.3624 33.9767 52.2594 33.8223L46.5966 35.83L40.9338 33.8223C40.8823 33.9767 40.9338 33.9252 40.8308 34.1311Z" fill="#8C694B"/>
<path d="M40.8308 17.2458L45.8244 20.4376C46.2877 20.7465 46.9055 20.7465 47.4203 20.4376L52.4138 17.2458C52.3109 17.0399 52.3624 17.0914 52.2594 16.8855L46.6481 18.8417L40.9853 16.834C40.8823 17.0914 40.9338 17.0399 40.8308 17.2458Z" fill="#8C694B"/>
<path d="M13.3411 115.367V119.794H12.0026V108.674C12.5174 108.674 13.0322 108.674 13.5985 108.674C14.1647 108.674 14.6281 108.674 14.9884 108.674C17.6139 108.674 18.9524 109.755 18.9524 111.969C18.9524 112.793 18.695 113.462 18.2317 114.028C17.7683 114.543 17.2021 114.903 16.5328 115.109L20.2394 119.794H18.592L15.1943 115.367H13.3411ZM14.9369 109.961C14.834 109.961 14.3192 109.961 13.3925 110.013V114.131H15.0399C15.7091 114.131 16.3269 113.925 16.7902 113.565C17.305 113.153 17.5624 112.638 17.5624 112.021C17.5109 110.631 16.6358 109.961 14.9369 109.961Z" fill="#8C694B"/>
<path d="M29.918 119.845H23.483V108.726H29.7636V110.013H24.873V113.616H29.3003V114.903H24.873V118.61H29.9695V119.845H29.918Z" fill="#8C694B"/>
<path d="M38.6692 116.963C38.6692 116.602 38.5663 116.294 38.3604 115.985C38.1544 115.727 37.897 115.47 37.5882 115.315C37.2793 115.161 36.9189 114.955 36.5586 114.801C36.1467 114.646 35.7864 114.492 35.426 114.286C35.0142 114.08 34.7053 113.874 34.3964 113.668C34.0875 113.411 33.8301 113.153 33.6242 112.741C33.4183 112.381 33.3153 111.918 33.3153 111.403C33.3153 110.579 33.6242 109.91 34.242 109.344C34.8597 108.777 35.6834 108.52 36.6615 108.52C37.2793 108.52 37.897 108.623 38.4118 108.829C38.9781 109.035 39.39 109.344 39.6988 109.653L38.9781 110.682C38.3604 110.064 37.6396 109.756 36.713 109.756C36.0952 109.756 35.6319 109.91 35.2716 110.219C34.9112 110.528 34.7568 110.888 34.7568 111.403C34.7568 111.763 34.8597 112.072 35.0656 112.381C35.2716 112.638 35.529 112.896 35.8378 113.05C36.1467 113.205 36.5071 113.359 36.8674 113.514C37.2793 113.668 37.6396 113.822 38 114.028C38.3604 114.183 38.7207 114.389 39.0296 114.646C39.3385 114.852 39.5959 115.161 39.8018 115.573C40.0077 115.985 40.1107 116.396 40.1107 116.911C40.1107 117.838 39.7503 118.559 39.0811 119.125C38.4118 119.691 37.5367 119.949 36.5071 119.949C35.7864 119.949 35.0656 119.794 34.3964 119.485C33.7272 119.176 33.2638 118.765 33.0064 118.25L33.7786 117.323C34.0875 117.735 34.4994 118.044 35.0142 118.301C35.529 118.559 36.0438 118.662 36.5586 118.662C37.1763 118.662 37.6911 118.507 38.103 118.198C38.4633 117.941 38.6692 117.529 38.6692 116.963Z" fill="#8C694B"/>
<path d="M45.5168 119.845H44.1784V108.726H45.5168V119.845Z" fill="#8C694B"/>
<path d="M50.6121 119.846H50.4576V108.726H50.6636C51.1269 108.726 51.5902 108.726 52.0021 108.726C52.9287 108.726 53.392 108.675 53.495 108.675C54.5761 108.675 55.5027 108.829 56.3264 109.087C57.1501 109.396 57.7678 109.756 58.2826 110.271C58.7459 110.785 59.1063 111.352 59.3637 112.021C59.6211 112.639 59.7241 113.359 59.7241 114.132C59.7241 115.779 59.1578 117.169 58.0767 118.25C56.9956 119.331 55.3997 119.846 53.392 119.846C52.9287 119.846 52.5169 119.846 52.105 119.846C51.5902 119.846 51.1269 119.846 50.6121 119.846ZM53.4435 109.962C53.2376 109.962 52.9802 109.962 52.5683 109.962C52.1565 109.962 51.8991 109.962 51.7961 109.962V118.507C52.0535 118.507 52.3624 118.507 52.6198 118.507C52.8772 118.507 53.0831 118.507 53.1861 118.507C53.2891 118.507 53.392 118.507 53.392 118.507C54.9364 118.507 56.1205 118.096 56.9956 117.272C57.8708 116.448 58.2826 115.367 58.2826 114.029C58.2826 112.793 57.8708 111.764 57.0471 110.991C56.2234 110.219 54.9879 109.962 53.4435 109.962Z" fill="#8C694B"/>
<path d="M69.8147 119.846H63.3797V108.726H69.6602V110.013H64.7696V113.617H69.1969V114.904H64.7696V118.61H69.8661V119.846H69.8147Z" fill="#8C694B"/>
<path d="M83.045 108.726V119.846H81.964L75.0142 111.146V119.846H73.7272V108.726H74.8082L81.758 117.478V108.726H83.045Z" fill="#8C694B"/>
<path d="M95.4005 117.735L95.9153 118.764C95.555 119.125 95.0402 119.434 94.4224 119.691C93.8046 119.897 93.1354 120 92.4147 120C90.7673 120 89.3774 119.485 88.3478 118.455C87.3182 117.374 86.8034 116.036 86.8034 114.286C86.8034 112.638 87.3182 111.3 88.2963 110.219C89.2744 109.138 90.6129 108.571 92.3632 108.571C93.7532 108.571 94.8857 108.932 95.7609 109.652L95.1431 110.682C94.4224 110.116 93.4958 109.858 92.4147 109.858C91.2306 109.858 90.201 110.27 89.4288 111.094C88.6566 111.917 88.2963 112.999 88.2963 114.286C88.2963 115.624 88.7081 116.705 89.4803 117.529C90.304 118.353 91.3336 118.764 92.6206 118.764C93.6502 118.713 94.5768 118.404 95.4005 117.735Z" fill="#8C694B"/>
<path d="M105.748 119.845H99.3131V108.726H105.594V110.013H100.703V113.616H105.13V114.903H100.703V118.61H105.8V119.845H105.748Z" fill="#8C694B"/>
<path d="M15.5547 82.3163C17.0991 80.8233 17.9228 78.8156 17.9228 76.3446C17.9228 73.7706 17.0476 71.6599 15.2973 70.167C13.547 68.6741 11.1274 67.9019 8.09009 67.9019H1.70656C0.882879 67.9019 0.213638 68.5711 0.213638 69.3948V96.7307C0.213638 97.5544 0.882879 98.2751 1.75804 98.2751C2.58172 98.2751 3.30244 97.6058 3.30244 96.7307V84.8903H5.87644L14.0103 97.5544C14.2677 97.9662 14.7825 98.2751 15.2973 98.2751C16.5328 98.2751 17.2535 96.9366 16.5843 95.907L9.42857 84.8388C12.0026 84.5299 14.0618 83.7577 15.5547 82.3163ZM3.30244 68.8285H8.09009C10.4582 68.8285 12.157 69.4977 13.2381 70.8362C14.3192 72.1747 14.8855 74.028 14.8855 76.3961C14.8855 78.6612 14.3707 80.5145 13.3411 81.853C12.3115 83.1914 10.6641 83.8607 8.45045 83.9122H3.30244V68.8285Z" fill="#E4D7C4"/>
<path d="M31.0502 67.9019L21.9382 98.2236H22.9163L26.2625 87.0524H36.6615L39.6474 97.091C39.8533 97.7603 40.4196 98.1721 41.0888 98.1721H41.1403C42.1699 98.1721 42.8906 97.194 42.5817 96.2159L34.3964 68.9315C34.1905 68.3137 33.6242 67.9019 33.0064 67.9019H31.0502ZM26.5714 86.0743L31.462 69.7551L36.4041 86.0743H26.5714Z" fill="#E4D7C4"/>
<path d="M66.0571 96.0102L51.7972 68.6743C51.5398 68.1595 51.025 67.8506 50.4587 67.8506H48.0906V98.1723H49.0172V70.0127L63.2772 97.3487C63.5346 97.8635 64.0494 98.1723 64.6157 98.1723H66.9838V67.8506H66.0571V96.0102Z" fill="#E4D7C4"/>
<path d="M71.616 68.829H81.3457V96.6797C81.3457 97.5034 82.015 98.2241 82.8901 98.2241C83.7138 98.2241 84.4345 97.5549 84.4345 96.6797V68.829H94.1642V67.9023H71.616V68.829Z" fill="#E4D7C4"/>
<path d="M106.159 67.9023H104.203L95.0906 98.2241H96.0687L99.4149 87.0529H109.814L112.8 97.0915C113.006 97.7608 113.572 98.1726 114.293 98.1726C115.322 98.1726 116.043 97.1945 115.786 96.1649L107.6 68.8805C107.343 68.3142 106.777 67.9023 106.159 67.9023ZM99.6723 86.0748L104.563 69.7556L109.505 86.0748H99.6723Z" fill="#E4D7C4"/>
</svg>
